<?xml version="1.0" encoding="UTF-8" standalone="no"?>
<!DOCTYPE svg PUBLIC "-//W3C//DTD SVG 1.1//EN"
 "http://www.w3.org/Graphics/SVG/1.1/DTD/svg11.dtd">
<!-- Generated by graphviz version 2.40.1 (20161225.0304)
 -->
<!-- Title: begets Pages: 1 -->
<svg width="2464pt" height="753pt"
 viewBox="0.00 0.00 2464.43 753.00" xmlns="http://www.w3.org/2000/svg" xmlns:xlink="http://www.w3.org/1999/xlink">
<g id="graph0" class="graph" transform="scale(1 1) rotate(0) translate(4 749)">
<title>begets</title>
<polygon fill="#ffffff" stroke="transparent" points="-4,4 -4,-749 2460.4346,-749 2460.4346,4 -4,4"/>
<!-- unknown_1 -->
<g id="node1" class="node">
<title>unknown_1</title>
<ellipse fill="none" stroke="#000000" cx="1064" cy="-727" rx="27" ry="18"/>
<text text-anchor="middle" x="1064" y="-722.8" font-family="Times,serif" font-size="14.00" fill="#000000">?</text>
</g>
<!-- Space Fleet -->
<g id="node34" class="node">
<title>Space Fleet</title>
<ellipse fill="none" stroke="#000000" cx="1064" cy="-654" rx="51.2319" ry="18"/>
<text text-anchor="middle" x="1064" y="-649.8" font-family="Times,serif" font-size="14.00" fill="#000000">Space Fleet</text>
</g>
<!-- unknown_1&#45;&gt;Space Fleet -->
<g id="edge3" class="edge">
<title>unknown_1&#45;&gt;Space Fleet</title>
<path fill="none" stroke="#000000" d="M1064,-708.9551C1064,-700.8828 1064,-691.1764 1064,-682.1817"/>
<polygon fill="#000000" stroke="#000000" points="1067.5001,-682.0903 1064,-672.0904 1060.5001,-682.0904 1067.5001,-682.0903"/>
</g>
<!-- unknown_2 -->
<g id="node2" class="node">
<title>unknown_2</title>
<ellipse fill="none" stroke="#000000" cx="1199" cy="-727" rx="27" ry="18"/>
<text text-anchor="middle" x="1199" y="-722.8" font-family="Times,serif" font-size="14.00" fill="#000000">?</text>
</g>
<!-- hierarchy -->
<g id="node19" class="node">
<title>hierarchy</title>
<ellipse fill="none" stroke="#000000" cx="1199" cy="-654" rx="66.0524" ry="18"/>
<text text-anchor="middle" x="1199" y="-649.8" font-family="Times,serif" font-size="14.00" fill="#000000">Time Hierarchy</text>
</g>
<!-- unknown_2&#45;&gt;hierarchy -->
<g id="edge6" class="edge">
<title>unknown_2&#45;&gt;hierarchy</title>
<path fill="none" stroke="#000000" d="M1199,-708.9551C1199,-700.8828 1199,-691.1764 1199,-682.1817"/>
<polygon fill="#000000" stroke="#000000" points="1202.5001,-682.0903 1199,-672.0904 1195.5001,-682.0904 1202.5001,-682.0903"/>
</g>
<!-- unknown_3 -->
<g id="node3" class="node">
<title>unknown_3</title>
<ellipse fill="none" stroke="#000000" cx="1617" cy="-250" rx="27" ry="18"/>
<text text-anchor="middle" x="1617" y="-245.8" font-family="Times,serif" font-size="14.00" fill="#000000">?</text>
</g>
<!-- posthuman -->
<g id="node28" class="node">
<title>posthuman</title>
<ellipse fill="none" stroke="#000000" cx="1755" cy="-164" rx="158.4361" ry="18"/>
<text text-anchor="middle" x="1755" y="-159.8" font-family="Times,serif" font-size="14.00" fill="#000000">Posthumanism Propagation Movemement</text>
</g>
<!-- unknown_3&#45;&gt;posthuman -->
<g id="edge7" class="edge">
<title>unknown_3&#45;&gt;posthuman</title>
<path fill="none" stroke="#000000" d="M1627.3881,-233.1855C1634.7771,-222.4239 1645.5716,-208.8667 1658,-200 1666.3664,-194.0312 1675.8383,-188.9322 1685.5036,-184.6124"/>
<polygon fill="#000000" stroke="#000000" points="1686.9363,-187.8068 1694.7998,-180.7064 1684.2247,-181.3533 1686.9363,-187.8068"/>
</g>
<!-- unknown_4 -->
<g id="node4" class="node">
<title>unknown_4</title>
<ellipse fill="none" stroke="#000000" cx="1753" cy="-581" rx="27" ry="18"/>
<text text-anchor="middle" x="1753" y="-576.8" font-family="Times,serif" font-size="14.00" fill="#000000">?</text>
</g>
<!-- admin -->
<g id="node33" class="node">
<title>admin</title>
<ellipse fill="none" stroke="#000000" cx="1753" cy="-508" rx="125.6197" ry="18"/>
<text text-anchor="middle" x="1753" y="-503.8" font-family="Times,serif" font-size="14.00" fill="#000000">Most Benevolent Administrators</text>
</g>
<!-- unknown_4&#45;&gt;admin -->
<g id="edge50" class="edge">
<title>unknown_4&#45;&gt;admin</title>
<path fill="none" stroke="#000000" d="M1753,-562.9551C1753,-554.8828 1753,-545.1764 1753,-536.1817"/>
<polygon fill="#000000" stroke="#000000" points="1756.5001,-536.0903 1753,-526.0904 1749.5001,-536.0904 1756.5001,-536.0903"/>
</g>
<!-- the_agency -->
<g id="node5" class="node">
<title>the_agency</title>
<polygon fill="none" stroke="#000000" points="306.5628,-672 25.4372,-672 25.4372,-636 306.5628,-636 306.5628,-672"/>
<text text-anchor="middle" x="166" y="-649.8" font-family="Times,serif" font-size="14.00" fill="#000000">Agency for the Preservation of Time and Space</text>
</g>
<!-- fleet -->
<g id="node7" class="node">
<title>fleet</title>
<ellipse fill="none" stroke="#000000" cx="1064" cy="-581" rx="72.3341" ry="18"/>
<text text-anchor="middle" x="1064" y="-576.8" font-family="Times,serif" font-size="14.00" fill="#000000">Space&#45;Time Fleet</text>
</g>
<!-- the_agency&#45;&gt;fleet -->
<g id="edge1" class="edge">
<title>the_agency&#45;&gt;fleet</title>
<path fill="none" stroke="#000000" d="M306.8061,-642.5536C497.8838,-627.0206 832.8654,-599.7893 984.9228,-587.4283"/>
<polygon fill="#000000" stroke="#000000" points="985.4271,-590.899 995.1106,-586.6001 984.8598,-583.922 985.4271,-590.899"/>
</g>
<!-- conservatory -->
<g id="node14" class="node">
<title>conservatory</title>
<ellipse fill="none" stroke="#000000" cx="2030" cy="-508" rx="78.1401" ry="18"/>
<text text-anchor="middle" x="2030" y="-503.8" font-family="Times,serif" font-size="14.00" fill="#000000">Time Conservatory</text>
</g>
<!-- the_agency&#45;&gt;conservatory -->
<g id="edge2" class="edge">
<title>the_agency&#45;&gt;conservatory</title>
<path fill="none" stroke="#000000" d="M306.8218,-650.476C688.1432,-640.7669 1717.0355,-613.3976 1789,-599 1861.4145,-584.5124 1940.6789,-550.8541 1987.8289,-528.7835"/>
<polygon fill="#000000" stroke="#000000" points="1989.5603,-531.8364 1997.1039,-524.3969 1986.5675,-525.5084 1989.5603,-531.8364"/>
</g>
<!-- private -->
<g id="node24" class="node">
<title>private</title>
<ellipse fill="none" stroke="#000000" cx="516" cy="-164" rx="80.0783" ry="18"/>
<text text-anchor="middle" x="516" y="-159.8" font-family="Times,serif" font-size="14.00" fill="#000000">Time Investigations</text>
</g>
<!-- the_agency&#45;&gt;private -->
<g id="edge40" class="edge">
<title>the_agency&#45;&gt;private</title>
<path fill="none" stroke="#000000" d="M157.6971,-635.6841C138.1856,-590.008 93.3698,-467.8405 125,-372 134.3605,-343.6375 141.6517,-336.6255 165,-318 253.4931,-247.4069 379.3668,-202.6317 453.8671,-180.5335"/>
<polygon fill="#000000" stroke="#000000" points="454.9665,-183.8587 463.5831,-177.6939 453.0028,-177.1398 454.9665,-183.8587"/>
</g>
<!-- bureau -->
<g id="node25" class="node">
<title>bureau</title>
<ellipse fill="none" stroke="#000000" cx="418" cy="-18" rx="101.3002" ry="18"/>
<text text-anchor="middle" x="418" y="-13.8" font-family="Times,serif" font-size="14.00" fill="#000000">Time &amp; Measures Bureau</text>
</g>
<!-- the_agency&#45;&gt;bureau -->
<g id="edge41" class="edge">
<title>the_agency&#45;&gt;bureau</title>
<path fill="none" stroke="#000000" d="M93.6729,-635.9047C48.9393,-622.5218 0,-602.8807 0,-581 0,-581 0,-581 0,-91 0,-59.159 190.6489,-37.0305 314.4372,-26.0184"/>
<polygon fill="#000000" stroke="#000000" points="315.0574,-29.4775 324.7129,-25.1161 314.445,-22.5044 315.0574,-29.4775"/>
</g>
<!-- hanse -->
<g id="node26" class="node">
<title>hanse</title>
<ellipse fill="none" stroke="#000000" cx="209" cy="-422" rx="52.5489" ry="18"/>
<text text-anchor="middle" x="209" y="-417.8" font-family="Times,serif" font-size="14.00" fill="#000000">Time Hanse</text>
</g>
<!-- the_agency&#45;&gt;hanse -->
<g id="edge43" class="edge">
<title>the_agency&#45;&gt;hanse</title>
<path fill="none" stroke="#000000" d="M169.3741,-635.7953C176.8472,-595.4758 194.8378,-498.4103 203.7771,-450.1795"/>
<polygon fill="#000000" stroke="#000000" points="207.2604,-450.5905 205.6415,-440.1201 200.3777,-449.3148 207.2604,-450.5905"/>
</g>
<!-- brigade -->
<g id="node6" class="node">
<title>brigade</title>
<ellipse fill="none" stroke="#000000" cx="1064" cy="-508" rx="58.8368" ry="18"/>
<text text-anchor="middle" x="1064" y="-503.8" font-family="Times,serif" font-size="14.00" fill="#000000">Time Brigade</text>
</g>
<!-- federation -->
<g id="node8" class="node">
<title>federation</title>
<ellipse fill="none" stroke="#000000" cx="1374" cy="-250" rx="68.4837" ry="18"/>
<text text-anchor="middle" x="1374" y="-245.8" font-family="Times,serif" font-size="14.00" fill="#000000">Time Federation</text>
</g>
<!-- brigade&#45;&gt;federation -->
<g id="edge52" class="edge">
<title>brigade&#45;&gt;federation</title>
<path fill="none" stroke="#000000" stroke-dasharray="1,5" d="M1120.5007,-502.719C1156.8798,-497.8789 1204.5635,-488.7944 1244,-472 1266.9135,-462.2421 1272.7983,-458.0096 1290,-440 1334.82,-393.0749 1358.1315,-318.258 1368.0286,-277.934"/>
<polygon fill="none" stroke="#000000" points="1366.4726,-267.0788 1374.2601,-268.9105 1372.4284,-276.698 1364.6409,-274.8663 1366.4726,-267.0788"/>
<polyline fill="none" stroke="#000000" points="1368.5347,-275.7822 1368.0768,-277.729 "/>
<text text-anchor="middle" x="1352.6655" y="-374.8" font-family="Times,serif" font-size="14.00" fill="#000000">hostile</text>
</g>
<!-- babylon -->
<g id="node9" class="node">
<title>babylon</title>
<ellipse fill="none" stroke="#000000" cx="1194" cy="-422" rx="67.1696" ry="18"/>
<text text-anchor="middle" x="1194" y="-417.8" font-family="Times,serif" font-size="14.00" fill="#000000">Babylon Project</text>
</g>
<!-- brigade&#45;&gt;babylon -->
<g id="edge51" class="edge">
<title>brigade&#45;&gt;babylon</title>
<path fill="none" stroke="#000000" stroke-dasharray="1,5" d="M1088.758,-491.6216C1108.919,-478.2843 1137.5956,-459.3137 1159.9243,-444.5424"/>
<polygon fill="none" stroke="#000000" points="1166.2389,-435.569 1170.6528,-442.2411 1163.9807,-446.655 1159.5667,-439.9829 1166.2389,-435.569"/>
<polyline fill="none" stroke="#000000" points="1161.7737,-443.319 1160.1057,-444.4224 "/>
<text text-anchor="middle" x="1155.6655" y="-460.8" font-family="Times,serif" font-size="14.00" fill="#000000">hostile</text>
</g>
<!-- first_parlament -->
<g id="node12" class="node">
<title>first_parlament</title>
<ellipse fill="none" stroke="#000000" cx="1029" cy="-336" rx="66.5542" ry="18"/>
<text text-anchor="middle" x="1029" y="-331.8" font-family="Times,serif" font-size="14.00" fill="#000000">Time Parlament</text>
</g>
<!-- brigade&#45;&gt;first_parlament -->
<g id="edge60" class="edge">
<title>brigade&#45;&gt;first_parlament</title>
<path fill="none" stroke="#000000" stroke-dasharray="1,5" d="M1059.6517,-489.8596C1056.424,-476.1857 1051.9905,-456.9548 1048.4688,-440 1042.2299,-409.9645 1035.8458,-374.8585 1032.161,-354.0791"/>
<text text-anchor="middle" x="1067.2656" y="-417.8" font-family="Times,serif" font-size="14.00" fill="#000000">rejects</text>
</g>
<!-- second_parlament -->
<g id="node13" class="node">
<title>second_parlament</title>
<ellipse fill="none" stroke="#000000" cx="846" cy="-91" rx="94.7328" ry="18"/>
<text text-anchor="middle" x="846" y="-86.8" font-family="Times,serif" font-size="14.00" fill="#000000">Second Time Parlament</text>
</g>
<!-- brigade&#45;&gt;second_parlament -->
<g id="edge61" class="edge">
<title>brigade&#45;&gt;second_parlament</title>
<path fill="none" stroke="#000000" stroke-dasharray="1,5" d="M1049.5432,-490.2596C996.3746,-424.9296 814.4219,-200.5759 808,-182 799.9069,-158.5899 803.8376,-147.9829 817,-127 820.8383,-120.8812 825.5621,-114.6152 830.0744,-109.0617"/>
<text text-anchor="middle" x="915.2656" y="-288.8" font-family="Times,serif" font-size="14.00" fill="#000000">rejects</text>
</g>
<!-- travel -->
<g id="node20" class="node">
<title>travel</title>
<ellipse fill="none" stroke="#000000" cx="264" cy="-336" rx="82.534" ry="18"/>
<text text-anchor="middle" x="264" y="-331.8" font-family="Times,serif" font-size="14.00" fill="#000000">Time Travel Agency</text>
</g>
<!-- brigade&#45;&gt;travel -->
<g id="edge58" class="edge">
<title>brigade&#45;&gt;travel</title>
<path fill="none" stroke="#000000" stroke-dasharray="1,5" d="M1005.1497,-507.3304C873.5053,-505.3769 558.7546,-498.048 456,-472 423.4532,-463.7495 415.8602,-458.0768 387.5654,-440 367.827,-427.3897 321.2241,-386.9441 291.228,-360.3657"/>
<polygon fill="none" stroke="#000000" points="280.9586,-356.5928 286.272,-350.6121 292.2527,-355.9255 286.9393,-361.9062 280.9586,-356.5928"/>
<polyline fill="none" stroke="#000000" points="289.596,-358.9158 291.0911,-360.2442 "/>
<text text-anchor="middle" x="422.2173" y="-417.8" font-family="Times,serif" font-size="14.00" fill="#000000">semi&#45;hostile</text>
</g>
<!-- commune -->
<g id="node22" class="node">
<title>commune</title>
<ellipse fill="none" stroke="#000000" cx="1220" cy="-250" rx="67.5405" ry="18"/>
<text text-anchor="middle" x="1220" y="-245.8" font-family="Times,serif" font-size="14.00" fill="#000000">Time Commune</text>
</g>
<!-- brigade&#45;&gt;commune -->
<g id="edge53" class="edge">
<title>brigade&#45;&gt;commune</title>
<path fill="none" stroke="#000000" stroke-dasharray="1,5" d="M1114.2831,-498.4556C1169.1741,-486.8853 1251.7236,-465.7074 1270,-440 1305.9216,-389.4729 1265.633,-314.9193 1239.2421,-275.9247"/>
<polygon fill="none" stroke="#000000" points="1230.2477,-269.9969 1236.8157,-265.4294 1241.3832,-271.9974 1234.8152,-276.5649 1230.2477,-269.9969"/>
<polyline fill="none" stroke="#000000" points="1238.0992,-274.2811 1239.241,-275.9232 "/>
<text text-anchor="middle" x="1301.6655" y="-374.8" font-family="Times,serif" font-size="14.00" fill="#000000">hostile</text>
</g>
<!-- torture -->
<g id="node23" class="node">
<title>torture</title>
<ellipse fill="none" stroke="#000000" cx="541" cy="-91" rx="153.7905" ry="18"/>
<text text-anchor="middle" x="541" y="-86.8" font-family="Times,serif" font-size="14.00" fill="#000000">Time Will Tell Interrogation Department</text>
</g>
<!-- brigade&#45;&gt;torture -->
<g id="edge36" class="edge">
<title>brigade&#45;&gt;torture</title>
<path fill="none" stroke="#000000" d="M1040.2231,-491.3967C1022.2815,-478.3611 997.5092,-459.252 978,-440 956.8045,-419.084 832.0342,-250.872 809,-232 743.0687,-177.9822 653.1625,-135.8336 596.0892,-112.185"/>
<polygon fill="#000000" stroke="#000000" points="597.105,-108.8189 586.5245,-108.2677 594.4519,-115.2967 597.105,-108.8189"/>
</g>
<!-- brigade&#45;&gt;private -->
<g id="edge57" class="edge">
<title>brigade&#45;&gt;private</title>
<path fill="none" stroke="#000000" stroke-dasharray="1,5" d="M1009.1158,-501.4925C879.9985,-484.9223 563.3138,-436.5103 502.5654,-354 467.2302,-306.0066 488.3063,-231.4192 503.8786,-191.4696"/>
<polygon fill="none" stroke="#000000" points="503.9748,-180.5926 511.388,-183.6003 508.3803,-191.0134 500.9672,-188.0058 503.9748,-180.5926"/>
<polyline fill="none" stroke="#000000" points="504.6737,-189.5096 503.9218,-191.3629 "/>
<text text-anchor="middle" x="537.2173" y="-331.8" font-family="Times,serif" font-size="14.00" fill="#000000">semi&#45;hostile</text>
</g>
<!-- brigade&#45;&gt;hanse -->
<g id="edge59" class="edge">
<title>brigade&#45;&gt;hanse</title>
<path fill="none" stroke="#000000" stroke-dasharray="1,5" d="M1005.5787,-506.3094C843.0707,-501.4425 393.3449,-486.7976 328.1309,-472 299.6773,-465.5436 269.3817,-452.7393 246.4621,-441.7049"/>
<polygon fill="none" stroke="#000000" points="238.977,-434.1251 246.4071,-441.6779 235.8887,-440.407 238.977,-434.1251"/>
<text text-anchor="middle" x="344.9346" y="-460.8" font-family="Times,serif" font-size="14.00" fill="#000000">treaty</text>
</g>
<!-- smugglers -->
<g id="node27" class="node">
<title>smugglers</title>
<ellipse fill="none" stroke="#000000" cx="322" cy="-164" rx="95.7278" ry="18"/>
<text text-anchor="middle" x="322" y="-159.8" font-family="Times,serif" font-size="14.00" fill="#000000">Honest Time Smugglers</text>
</g>
<!-- brigade&#45;&gt;smugglers -->
<g id="edge54" class="edge">
<title>brigade&#45;&gt;smugglers</title>
<path fill="none" stroke="#000000" stroke-dasharray="1,5" d="M1006.8975,-503.6245C894.9451,-494.4712 650.7638,-471.5101 573,-440 509.7084,-414.354 493.5445,-402.6978 445.6689,-354 396.1945,-303.6758 355.3561,-230.6378 335.3271,-191.3916"/>
<polygon fill="none" stroke="#000000" points="327.1175,-183.974 334.264,-180.3785 337.8595,-187.525 330.713,-191.1205 327.1175,-183.974"/>
<polyline fill="none" stroke="#000000" points="334.2862,-189.3227 335.1851,-191.1094 "/>
<text text-anchor="middle" x="464.6655" y="-331.8" font-family="Times,serif" font-size="14.00" fill="#000000">hostile</text>
</g>
<!-- brigade&#45;&gt;posthuman -->
<g id="edge56" class="edge">
<title>brigade&#45;&gt;posthuman</title>
<path fill="none" stroke="#000000" stroke-dasharray="1,5" d="M1121.821,-504.9519C1211.7664,-499.7883 1380.901,-488.272 1439,-472 1467.9991,-463.8781 1662.6652,-376.2128 1683,-354 1725.8558,-307.1863 1744.0366,-232.3242 1751.0577,-191.9636"/>
<polygon fill="none" stroke="#000000" points="1748.7345,-181.37 1756.63,-182.6593 1755.3407,-190.5547 1747.4452,-189.2654 1748.7345,-181.37"/>
<polyline fill="none" stroke="#000000" points="1751.3929,-189.9101 1751.0706,-191.8839 "/>
<text text-anchor="middle" x="1726.6655" y="-331.8" font-family="Times,serif" font-size="14.00" fill="#000000">hostile</text>
</g>
<!-- university -->
<g id="node29" class="node">
<title>university</title>
<ellipse fill="none" stroke="#000000" cx="1606" cy="-336" rx="68.0164" ry="18"/>
<text text-anchor="middle" x="1606" y="-331.8" font-family="Times,serif" font-size="14.00" fill="#000000">Time University</text>
</g>
<!-- brigade&#45;&gt;university -->
<g id="edge55" class="edge">
<title>brigade&#45;&gt;university</title>
<path fill="none" stroke="#000000" stroke-dasharray="1,5" d="M1122.2929,-505.4638C1202.2678,-501.3151 1341.4078,-491.5099 1388,-472 1432.2,-453.4918 1431.4698,-430.0811 1471.6689,-404 1500.2095,-385.4829 1534.4519,-368.2175 1561.2209,-355.7175"/>
<polygon fill="none" stroke="#000000" points="1568.6797,-347.8688 1572.0327,-355.1323 1564.7692,-358.4852 1561.4162,-351.2217 1568.6797,-347.8688"/>
<polyline fill="none" stroke="#000000" points="1563.0927,-354.8535 1561.2768,-355.6917 "/>
<text text-anchor="middle" x="1489.6655" y="-417.8" font-family="Times,serif" font-size="14.00" fill="#000000">hostile</text>
</g>
<!-- people -->
<g id="node30" class="node">
<title>people</title>
<ellipse fill="none" stroke="#000000" cx="1132" cy="-164" rx="93.0387" ry="18"/>
<text text-anchor="middle" x="1132" y="-159.8" font-family="Times,serif" font-size="14.00" fill="#000000">People&#39;s Time Brigades</text>
</g>
<!-- brigade&#45;&gt;people -->
<g id="edge8" class="edge">
<title>brigade&#45;&gt;people</title>
<path fill="none" stroke="#000000" d="M1069.9677,-489.919C1074.377,-476.2755 1080.3892,-457.0564 1085,-440 1095.2406,-402.1175 1097.7882,-392.5738 1105,-354 1115.6721,-296.9184 1124.3279,-229.4905 1128.7659,-192.2645"/>
<polygon fill="#000000" stroke="#000000" points="1132.262,-192.5029 1129.9548,-182.1623 1125.3099,-191.6847 1132.262,-192.5029"/>
</g>
<!-- squads -->
<g id="node31" class="node">
<title>squads</title>
<ellipse fill="none" stroke="#000000" cx="1484" cy="-164" rx="94.57" ry="18"/>
<text text-anchor="middle" x="1484" y="-159.8" font-family="Times,serif" font-size="14.00" fill="#000000">Time Protection Squads</text>
</g>
<!-- brigade&#45;&gt;squads -->
<g id="edge9" class="edge">
<title>brigade&#45;&gt;squads</title>
<path fill="none" stroke="#000000" d="M1122.6356,-506.5585C1223.6379,-502.7711 1424.1352,-489.1032 1471,-440 1540.8426,-366.8214 1491.9894,-314.98 1498,-214 1498.3697,-207.7888 1499.1473,-206.1155 1498,-200 1497.4957,-197.3121 1496.7969,-194.567 1495.9782,-191.8512"/>
<polygon fill="#000000" stroke="#000000" points="1499.2386,-190.5722 1492.6219,-182.2976 1492.6343,-192.8924 1499.2386,-190.5722"/>
</g>
<!-- fleet&#45;&gt;brigade -->
<g id="edge5" class="edge">
<title>fleet&#45;&gt;brigade</title>
<path fill="none" stroke="#000000" d="M1064,-562.9551C1064,-554.8828 1064,-545.1764 1064,-536.1817"/>
<polygon fill="#000000" stroke="#000000" points="1067.5001,-536.0903 1064,-526.0904 1060.5001,-536.0904 1067.5001,-536.0903"/>
</g>
<!-- fleet&#45;&gt;federation -->
<g id="edge11" class="edge">
<title>fleet&#45;&gt;federation</title>
<path fill="none" stroke="#000000" d="M1127.6501,-572.2356C1234.4944,-556.3771 1443.676,-520.0567 1499,-472 1563.4769,-415.9928 1459.5789,-318.1783 1404.619,-273.4848"/>
<polygon fill="#000000" stroke="#000000" points="1406.5632,-270.5577 1396.5712,-267.0347 1402.1853,-276.0198 1406.5632,-270.5577"/>
</g>
<!-- fleet&#45;&gt;babylon -->
<g id="edge16" class="edge">
<title>fleet&#45;&gt;babylon</title>
<path fill="none" stroke="#000000" d="M1089.1291,-564.0913C1115.5239,-544.9407 1156.1698,-511.2446 1178,-472 1181.777,-465.21 1184.8128,-457.3975 1187.1821,-449.9965"/>
<polygon fill="#000000" stroke="#000000" points="1190.572,-450.8738 1190.007,-440.294 1183.8511,-448.9169 1190.572,-450.8738"/>
</g>
<!-- fleet&#45;&gt;travel -->
<g id="edge13" class="edge">
<title>fleet&#45;&gt;travel</title>
<path fill="none" stroke="#000000" d="M991.6371,-579.856C808.5979,-576.6522 339.8151,-566.3917 314,-545 286.3758,-522.1091 272.0381,-415.6568 266.6144,-364.1134"/>
<polygon fill="#000000" stroke="#000000" points="270.0799,-363.5946 265.5908,-353.9978 263.1154,-364.2994 270.0799,-363.5946"/>
</g>
<!-- tabloid -->
<g id="node21" class="node">
<title>tabloid</title>
<ellipse fill="none" stroke="#000000" cx="2307" cy="-91" rx="55.4802" ry="18"/>
<text text-anchor="middle" x="2307" y="-86.8" font-family="Times,serif" font-size="14.00" fill="#000000">Time Stories</text>
</g>
<!-- fleet&#45;&gt;tabloid -->
<g id="edge65" class="edge">
<title>fleet&#45;&gt;tabloid</title>
<path fill="none" stroke="#000000" stroke-dasharray="1,5" d="M1136.1242,-578.9253C1412.4134,-570.7442 2388,-539.6179 2388,-508 2388,-508 2388,-508 2388,-164 2388,-140.5835 2369.0891,-122.7529 2349.5423,-110.5771"/>
<polygon fill="none" stroke="#000000" points="2338.8719,-109.0017 2342.8921,-102.0851 2349.8086,-106.1053 2345.7884,-113.0219 2338.8719,-109.0017"/>
<polyline fill="none" stroke="#000000" points="2347.7985,-109.5636 2349.5277,-110.5686 "/>
<text text-anchor="middle" x="2422.2173" y="-331.8" font-family="Times,serif" font-size="14.00" fill="#000000">semi&#45;hostile</text>
</g>
<!-- fleet&#45;&gt;private -->
<g id="edge64" class="edge">
<title>fleet&#45;&gt;private</title>
<path fill="none" stroke="#000000" stroke-dasharray="1,5" d="M992.4317,-578.1319C826.6252,-569.8327 424.0563,-539.6312 342,-440 289.9349,-376.7835 419.2888,-370.7927 434,-354 482.2981,-298.868 459.9888,-265.4409 493,-200 494.5846,-196.8588 496.3717,-193.6455 498.2318,-190.4949"/>
<polygon fill="none" stroke="#000000" points="500.1595,-179.7866 506.9605,-183.9993 502.7478,-190.8003 495.9468,-186.5876 500.1595,-179.7866"/>
<polyline fill="none" stroke="#000000" points="499.3473,-188.6939 498.2941,-190.3942 "/>
<text text-anchor="middle" x="418.2173" y="-374.8" font-family="Times,serif" font-size="14.00" fill="#000000">semi&#45;hostile</text>
</g>
<!-- fleet&#45;&gt;smugglers -->
<g id="edge62" class="edge">
<title>fleet&#45;&gt;smugglers</title>
<path fill="none" stroke="#000000" stroke-dasharray="1,5" d="M991.5117,-579.6775C815.1961,-576.1563 373.6899,-565.4008 310,-545 227.9332,-518.7128 215.3229,-492.5163 147,-440 86.3288,-393.3651 36.4827,-354.7924 70,-286 100.6041,-223.1869 176.294,-192.4484 236.7877,-177.5685"/>
<polygon fill="none" stroke="#000000" points="245.8233,-171.3343 247.6548,-179.1219 239.8673,-180.9535 238.0357,-173.1659 245.8233,-171.3343"/>
<polyline fill="none" stroke="#000000" points="238.9515,-177.0597 237.0047,-177.5176 "/>
<text text-anchor="middle" x="103.6655" y="-374.8" font-family="Times,serif" font-size="14.00" fill="#000000">hostile</text>
</g>
<!-- purity -->
<g id="node32" class="node">
<title>purity</title>
<ellipse fill="none" stroke="#000000" cx="1929" cy="-91" rx="75.7595" ry="18"/>
<text text-anchor="middle" x="1929" y="-86.8" font-family="Times,serif" font-size="14.00" fill="#000000">Time Purity Patrol</text>
</g>
<!-- fleet&#45;&gt;purity -->
<g id="edge63" class="edge">
<title>fleet&#45;&gt;purity</title>
<path fill="none" stroke="#000000" stroke-dasharray="1,5" d="M1129.0948,-572.9577C1202.86,-563.4535 1326.5476,-546.3344 1432,-526 1452.35,-522.0759 1777.4038,-450.9497 1795,-440 1879.165,-387.6262 1900.8193,-360.2915 1937,-268 1959.747,-209.9757 1943.2215,-190.2983 1945,-128 1945.0909,-124.8148 1944.6434,-121.5922 1943.846,-118.4463"/>
<polygon fill="none" stroke="#000000" points="1936.5788,-110.1645 1944.0973,-107.4309 1946.8309,-114.9494 1939.3124,-117.683 1936.5788,-110.1645"/>
<polyline fill="none" stroke="#000000" points="1943.0717,-116.3162 1943.7551,-118.1959 "/>
<text text-anchor="middle" x="1933.6655" y="-331.8" font-family="Times,serif" font-size="14.00" fill="#000000">hostile</text>
</g>
<!-- foundation -->
<g id="node10" class="node">
<title>foundation</title>
<ellipse fill="none" stroke="#000000" cx="2151" cy="-164" rx="143.9525" ry="18"/>
<text text-anchor="middle" x="2151" y="-159.8" font-family="Times,serif" font-size="14.00" fill="#000000">Foundation for a Time Encyclopaedia</text>
</g>
<!-- federation&#45;&gt;foundation -->
<g id="edge12" class="edge">
<title>federation&#45;&gt;foundation</title>
<path fill="none" stroke="#000000" d="M1437.2557,-242.9987C1567.1589,-228.6208 1865.7765,-195.5691 2032.6634,-177.0977"/>
<polygon fill="#000000" stroke="#000000" points="2033.4156,-180.536 2042.9699,-175.957 2032.6455,-173.5784 2033.4156,-180.536"/>
</g>
<!-- second_foundation -->
<g id="node11" class="node">
<title>second_foundation</title>
<ellipse fill="none" stroke="#000000" cx="924" cy="-164" rx="97.1726" ry="18"/>
<text text-anchor="middle" x="924" y="-159.8" font-family="Times,serif" font-size="14.00" fill="#000000">Covert Time Foundation</text>
</g>
<!-- federation&#45;&gt;second_foundation -->
<g id="edge15" class="edge">
<title>federation&#45;&gt;second_foundation</title>
<path fill="none" stroke="#000000" d="M1323.5701,-237.7203C1314.7359,-235.7097 1305.6156,-233.7231 1297,-232 1249.2829,-222.4566 1236.9119,-222.5117 1189,-214 1125.6651,-202.7484 1053.9816,-189.172 1001.1542,-179.0071"/>
<polygon fill="#000000" stroke="#000000" points="1001.664,-175.5411 991.1824,-177.0858 1000.3396,-182.4146 1001.664,-175.5411"/>
</g>
<!-- federation&#45;&gt;torture -->
<g id="edge67" class="edge">
<title>federation&#45;&gt;torture</title>
<path fill="none" stroke="#000000" stroke-dasharray="1,5" d="M1353.7225,-232.6969C1321.6683,-205.741 1260.2415,-155.7872 1234,-146 1131.2705,-107.6852 851.272,-118.0011 742,-109 719.492,-107.1459 695.575,-105.0843 672.3856,-103.0372"/>
<polygon fill="none" stroke="#000000" points="661.7925,-106.1145 662.4985,-98.1457 670.4673,-98.8517 669.7613,-106.8205 661.7925,-106.1145"/>
<polyline fill="none" stroke="#000000" points="670.1143,-102.8361 672.1065,-103.0126 "/>
<text text-anchor="middle" x="1306.6655" y="-159.8" font-family="Times,serif" font-size="14.00" fill="#000000">hostile</text>
</g>
<!-- federation&#45;&gt;posthuman -->
<g id="edge70" class="edge">
<title>federation&#45;&gt;posthuman</title>
<path fill="none" stroke="#000000" stroke-dasharray="1,5" d="M1421.884,-237.0162C1461.5743,-226.448 1519.5456,-211.4587 1570.5654,-200 1599.8937,-193.4131 1632.0016,-186.9043 1661.0892,-181.2707"/>
<polygon fill="none" stroke="#000000" points="1670.4861,-175.3879 1671.9987,-183.2436 1664.143,-184.7562 1662.6304,-176.9005 1670.4861,-175.3879"/>
<polyline fill="none" stroke="#000000" points="1663.3867,-180.8284 1661.4228,-181.2065 "/>
<text text-anchor="middle" x="1604.2173" y="-202.8" font-family="Times,serif" font-size="14.00" fill="#000000">semi&#45;hostile</text>
</g>
<!-- federation&#45;&gt;people -->
<g id="edge69" class="edge">
<title>federation&#45;&gt;people</title>
<path fill="none" stroke="#000000" stroke-dasharray="1,5" d="M1323.098,-237.9011C1314.3999,-235.8909 1305.4471,-233.8575 1297,-232 1258.2951,-223.4888 1246.3585,-228.9795 1209.6689,-214 1207.2117,-212.9967 1186.5192,-199.6559 1167.1118,-187.0081"/>
<polygon fill="none" stroke="#000000" points="1156.4573,-184.8306 1160.8299,-178.1313 1167.5292,-182.5039 1163.1565,-189.2032 1156.4573,-184.8306"/>
<polyline fill="none" stroke="#000000" points="1165.3429,-185.8536 1167.0177,-186.9467 "/>
<text text-anchor="middle" x="1227.6655" y="-202.8" font-family="Times,serif" font-size="14.00" fill="#000000">hostile</text>
</g>
<!-- federation&#45;&gt;squads -->
<g id="edge68" class="edge">
<title>federation&#45;&gt;squads</title>
<path fill="none" stroke="#000000" stroke-dasharray="1,5" d="M1366.8871,-231.7446C1364.1553,-221.4928 1363.0725,-208.9928 1369.6689,-200 1375.2764,-192.3554 1391.3761,-185.5921 1409.7887,-180.051"/>
<polygon fill="none" stroke="#000000" points="1418.4911,-173.4191 1420.6784,-181.1143 1412.9832,-183.3016 1410.7959,-175.6064 1418.4911,-173.4191"/>
<polyline fill="none" stroke="#000000" points="1411.8896,-179.454 1409.9658,-180.0008 "/>
<text text-anchor="middle" x="1387.6655" y="-202.8" font-family="Times,serif" font-size="14.00" fill="#000000">hostile</text>
</g>
<!-- federation&#45;&gt;purity -->
<g id="edge66" class="edge">
<title>federation&#45;&gt;purity</title>
<path fill="none" stroke="#000000" stroke-dasharray="1,5" d="M1359.616,-232.2919C1342.991,-209.5872 1320.5778,-170.2604 1342.6689,-146 1375.6832,-109.744 1688.4856,-96.9406 1843.1992,-92.8004"/>
<polygon fill="none" stroke="#000000" points="1853.5036,-88.5299 1853.7125,-96.5271 1845.7153,-96.7361 1845.5063,-88.7388 1853.5036,-88.5299"/>
<polyline fill="none" stroke="#000000" points="1845.6108,-92.7375 1843.6115,-92.7897 "/>
<text text-anchor="middle" x="1360.6655" y="-159.8" font-family="Times,serif" font-size="14.00" fill="#000000">hostile</text>
</g>
<!-- babylon&#45;&gt;first_parlament -->
<g id="edge17" class="edge">
<title>babylon&#45;&gt;first_parlament</title>
<path fill="none" stroke="#000000" d="M1162.9648,-405.8241C1136.3462,-391.9501 1097.8264,-371.8732 1068.9172,-356.8053"/>
<polygon fill="#000000" stroke="#000000" points="1070.3816,-353.6217 1059.8961,-352.1034 1067.1461,-359.8292 1070.3816,-353.6217"/>
</g>
<!-- babylon&#45;&gt;second_parlament -->
<g id="edge19" class="edge">
<title>babylon&#45;&gt;second_parlament</title>
<path fill="none" stroke="#000000" d="M1181.827,-404.0338C1166.0735,-381.7648 1136.8438,-343.6267 1105,-318 1018.5602,-248.4365 988.1468,-240.8859 885,-200 856.3361,-188.638 836.7623,-206.4682 818,-182 803.6081,-163.2313 814.0516,-137.0147 826.064,-117.5394"/>
<polygon fill="#000000" stroke="#000000" points="829.0338,-119.3934 831.6101,-109.1166 823.1874,-115.5438 829.0338,-119.3934"/>
</g>
<!-- foundation&#45;&gt;second_parlament -->
<g id="edge20" class="edge">
<title>foundation&#45;&gt;second_parlament</title>
<path fill="none" stroke="#000000" d="M2031.3023,-153.9696C1996.1042,-151.1883 1957.5179,-148.3032 1922,-146 1564.6454,-122.8267 1140.0017,-103.5534 948.574,-95.3071"/>
<polygon fill="#000000" stroke="#000000" points="948.6654,-91.8079 938.5242,-94.8751 948.3647,-98.8015 948.6654,-91.8079"/>
</g>
<!-- foundation&#45;&gt;tabloid -->
<g id="edge42" class="edge">
<title>foundation&#45;&gt;tabloid</title>
<path fill="none" stroke="#000000" d="M2188.3659,-146.5147C2211.7612,-135.5669 2241.9231,-121.4526 2265.9793,-110.1956"/>
<polygon fill="#000000" stroke="#000000" points="2267.6323,-113.2864 2275.2063,-105.8778 2264.6654,-106.9462 2267.6323,-113.2864"/>
</g>
<!-- second_foundation&#45;&gt;second_parlament -->
<g id="edge21" class="edge">
<title>second_foundation&#45;&gt;second_parlament</title>
<path fill="none" stroke="#000000" d="M905.1184,-146.3287C895.3226,-137.1609 883.195,-125.8107 872.4785,-115.7811"/>
<polygon fill="#000000" stroke="#000000" points="874.6709,-113.0393 864.9781,-108.7615 869.8877,-118.1502 874.6709,-113.0393"/>
</g>
<!-- first_parlament&#45;&gt;federation -->
<g id="edge18" class="edge">
<title>first_parlament&#45;&gt;federation</title>
<path fill="none" stroke="#000000" d="M1078.0637,-323.7696C1140.2611,-308.2654 1247.419,-281.5535 1314.2972,-264.8824"/>
<polygon fill="#000000" stroke="#000000" points="1315.4103,-268.2122 1324.2668,-262.3973 1313.7171,-261.42 1315.4103,-268.2122"/>
</g>
<!-- first_parlament&#45;&gt;bureau -->
<g id="edge48" class="edge">
<title>first_parlament&#45;&gt;bureau</title>
<path fill="none" stroke="#000000" d="M1001.5398,-319.3806C958.4496,-292.7605 873.1482,-237.8533 808,-182 795.2916,-171.1047 718.6949,-81.0169 704,-73 671.3714,-55.1992 581.8927,-39.7044 511.6227,-29.7379"/>
<polygon fill="#000000" stroke="#000000" points="511.792,-26.2276 501.4034,-28.3079 510.8219,-33.16 511.792,-26.2276"/>
</g>
<!-- second_parlament&#45;&gt;bureau -->
<g id="edge49" class="edge">
<title>second_parlament&#45;&gt;bureau</title>
<path fill="none" stroke="#000000" d="M804.9317,-74.7246C784.7589,-67.3347 759.9164,-59.12 737,-54 667.3136,-38.4306 587.481,-29.4284 525.1113,-24.3196"/>
<polygon fill="#000000" stroke="#000000" points="525.1087,-20.8083 514.8621,-23.5021 524.5521,-27.7862 525.1087,-20.8083"/>
</g>
<!-- conservatory&#45;&gt;foundation -->
<g id="edge22" class="edge">
<title>conservatory&#45;&gt;foundation</title>
<path fill="none" stroke="#000000" d="M2069.81,-492.3856C2097.6968,-478.5427 2130,-455.3169 2130,-422 2130,-422 2130,-422 2130,-250 2130,-230.1449 2135.3479,-208.4283 2140.6461,-191.7853"/>
<polygon fill="#000000" stroke="#000000" points="2144.0195,-192.7344 2143.8904,-182.1403 2137.3848,-190.5026 2144.0195,-192.7344"/>
</g>
<!-- museum -->
<g id="node15" class="node">
<title>museum</title>
<ellipse fill="none" stroke="#000000" cx="1724" cy="-422" rx="61.7524" ry="18"/>
<text text-anchor="middle" x="1724" y="-417.8" font-family="Times,serif" font-size="14.00" fill="#000000">Time Museum</text>
</g>
<!-- conservatory&#45;&gt;museum -->
<g id="edge23" class="edge">
<title>conservatory&#45;&gt;museum</title>
<path fill="none" stroke="#000000" d="M2005.0338,-490.8535C1987.7838,-479.8076 1963.9054,-466.0543 1941,-458 1893.4729,-441.2879 1837.3028,-432.24 1794.0191,-427.3952"/>
<polygon fill="#000000" stroke="#000000" points="1794.1842,-423.893 1783.8686,-426.3093 1793.4395,-430.8533 1794.1842,-423.893"/>
</g>
<!-- library -->
<g id="node16" class="node">
<title>library</title>
<ellipse fill="none" stroke="#000000" cx="2023" cy="-422" rx="57.3834" ry="18"/>
<text text-anchor="middle" x="2023" y="-417.8" font-family="Times,serif" font-size="14.00" fill="#000000">Time Library</text>
</g>
<!-- conservatory&#45;&gt;library -->
<g id="edge24" class="edge">
<title>conservatory&#45;&gt;library</title>
<path fill="none" stroke="#000000" d="M2028.5155,-489.7616C2027.5874,-478.3597 2026.3725,-463.4342 2025.3193,-450.494"/>
<polygon fill="#000000" stroke="#000000" points="2028.7822,-449.8952 2024.4824,-440.2121 2021.8053,-450.4631 2028.7822,-449.8952"/>
</g>
<!-- conservatory&#45;&gt;travel -->
<g id="edge14" class="edge">
<title>conservatory&#45;&gt;travel</title>
<path fill="none" stroke="#000000" d="M1973.0164,-495.6026C1963.0354,-493.6051 1952.7319,-491.6534 1943,-490 1836.9095,-471.9761 1810.0842,-468.6314 1703,-458 1581.1155,-445.8992 1549.2038,-457.6607 1428,-440 1356.7307,-429.6153 1341.3224,-414.0136 1270,-404 869.3191,-347.7449 762.7389,-402.1215 361,-354 352.289,-352.9566 343.1805,-351.6101 334.1823,-350.1235"/>
<polygon fill="#000000" stroke="#000000" points="334.5447,-346.6347 324.097,-348.3944 333.3617,-353.534 334.5447,-346.6347"/>
</g>
<!-- museum_acquisitions -->
<g id="node17" class="node">
<title>museum_acquisitions</title>
<ellipse fill="none" stroke="#000000" cx="724" cy="-336" rx="143.8574" ry="18"/>
<text text-anchor="middle" x="724" y="-331.8" font-family="Times,serif" font-size="14.00" fill="#000000">Department of Temporal Acquisitions</text>
</g>
<!-- museum&#45;&gt;museum_acquisitions -->
<g id="edge25" class="edge">
<title>museum&#45;&gt;museum_acquisitions</title>
<path fill="none" stroke="#000000" d="M1678.4303,-409.8704C1668.4637,-407.5931 1657.9258,-405.4693 1648,-404 1518.9385,-384.8958 1480.9984,-419.8561 1355,-386 1341.5633,-382.3895 1340.4603,-375.5213 1327,-372 1246.5016,-350.9413 1036.0408,-359.2607 953,-354 920.7186,-351.9549 885.9051,-349.3989 853.4045,-346.8609"/>
<polygon fill="#000000" stroke="#000000" points="853.6412,-343.3688 843.3977,-346.0744 853.0927,-350.3473 853.6412,-343.3688"/>
</g>
<!-- museum&#45;&gt;university -->
<g id="edge29" class="edge">
<title>museum&#45;&gt;university</title>
<path fill="none" stroke="#000000" d="M1700.9683,-405.2142C1682.8928,-392.0405 1657.5338,-373.5585 1637.567,-359.0065"/>
<polygon fill="#000000" stroke="#000000" points="1639.5198,-356.0988 1629.3769,-353.0374 1635.3969,-361.7558 1639.5198,-356.0988"/>
</g>
<!-- museum&#45;&gt;purity -->
<g id="edge72" class="edge">
<title>museum&#45;&gt;purity</title>
<path fill="none" stroke="#000000" stroke-dasharray="1,5" d="M1745.0063,-404.8102C1787.3769,-368.7101 1882.4071,-280.1898 1922,-182 1930.0246,-162.099 1931.5182,-137.7882 1931.1448,-119.302"/>
<polygon fill="none" stroke="#000000" points="1926.7477,-109.326 1934.7415,-109.0102 1935.0573,-117.0039 1927.0635,-117.3198 1926.7477,-109.326"/>
<polyline fill="none" stroke="#000000" points="1931.0604,-117.1619 1931.1393,-119.1603 "/>
<text text-anchor="middle" x="1914.6655" y="-245.8" font-family="Times,serif" font-size="14.00" fill="#000000">hostile</text>
</g>
<!-- library&#45;&gt;foundation -->
<g id="edge27" class="edge">
<title>library&#45;&gt;foundation</title>
<path fill="none" stroke="#000000" d="M2028.0458,-403.905C2039.5406,-364.5588 2070.2651,-269.1992 2116,-200 2118.3791,-196.4003 2121.1468,-192.8467 2124.0637,-189.4559"/>
<polygon fill="#000000" stroke="#000000" points="2126.8278,-191.6212 2131.0284,-181.8947 2121.6791,-186.8787 2126.8278,-191.6212"/>
</g>
<!-- library_special -->
<g id="node18" class="node">
<title>library_special</title>
<ellipse fill="none" stroke="#000000" cx="661" cy="-250" rx="138.606" ry="18"/>
<text text-anchor="middle" x="661" y="-245.8" font-family="Times,serif" font-size="14.00" fill="#000000">Library Special Operations Division</text>
</g>
<!-- library&#45;&gt;library_special -->
<g id="edge26" class="edge">
<title>library&#45;&gt;library_special</title>
<path fill="none" stroke="#000000" d="M1992.1282,-406.6305C1942.6506,-382.8264 1841.9066,-337.733 1751,-318 1660.6876,-298.396 1075.7243,-269.2114 801.9292,-256.4097"/>
<polygon fill="#000000" stroke="#000000" points="802.075,-252.9128 791.9227,-255.9426 801.7486,-259.9052 802.075,-252.9128"/>
</g>
<!-- library&#45;&gt;university -->
<g id="edge28" class="edge">
<title>library&#45;&gt;university</title>
<path fill="none" stroke="#000000" d="M1974.4074,-412.387C1909.1883,-399.4275 1789.7581,-375.4948 1688,-354 1681.7299,-352.6755 1675.1947,-351.275 1668.6704,-349.8637"/>
<polygon fill="#000000" stroke="#000000" points="1668.9818,-346.3498 1658.4666,-347.6464 1667.4953,-353.1901 1668.9818,-346.3498"/>
</g>
<!-- library&#45;&gt;purity -->
<g id="edge73" class="edge">
<title>library&#45;&gt;purity</title>
<path fill="none" stroke="#000000" stroke-dasharray="1,5" d="M2078.3742,-417.494C2165.0575,-408.8943 2323,-386.3207 2323,-336 2323,-336 2323,-336 2323,-164 2323,-152.3678 2314.464,-151.0806 2304,-146 2253.8846,-121.6676 2106,-105.4612 2011.6103,-97.2767"/>
<polygon fill="none" stroke="#000000" points="2001.1722,-100.3995 2001.8533,-92.4285 2009.8243,-93.1096 2009.1432,-101.0806 2001.1722,-100.3995"/>
<polyline fill="none" stroke="#000000" points="2009.4838,-97.0951 2011.4765,-97.2654 "/>
<text text-anchor="middle" x="2341.6655" y="-245.8" font-family="Times,serif" font-size="14.00" fill="#000000">hostile</text>
</g>
<!-- museum_acquisitions&#45;&gt;library_special -->
<g id="edge71" class="edge">
<title>museum_acquisitions&#45;&gt;library_special</title>
<path fill="none" stroke="#000000" stroke-dasharray="1,5" d="M710.6393,-317.7616C701.8691,-305.7896 690.2531,-289.9328 680.463,-276.5685"/>
<polygon fill="none" stroke="#000000" points="671.1146,-270.5759 677.5682,-265.8483 682.2959,-272.3019 675.8423,-277.0296 671.1146,-270.5759"/>
<polyline fill="none" stroke="#000000" points="679.0691,-274.6657 680.251,-276.2791 "/>
<text text-anchor="middle" x="731.2173" y="-288.8" font-family="Times,serif" font-size="14.00" fill="#000000">semi&#45;hostile</text>
</g>
<!-- museum_acquisitions&#45;&gt;smugglers -->
<g id="edge33" class="edge">
<title>museum_acquisitions&#45;&gt;smugglers</title>
<path fill="none" stroke="#000000" d="M662.8749,-319.5866C620.1463,-307.3234 562.1655,-289.0882 513,-268 457.2646,-244.0938 396.2782,-209.2447 358.5716,-186.5958"/>
<polygon fill="#000000" stroke="#000000" points="360.3354,-183.5723 349.9665,-181.3958 356.715,-189.5634 360.3354,-183.5723"/>
</g>
<!-- library_special&#45;&gt;second_foundation -->
<g id="edge32" class="edge">
<title>library_special&#45;&gt;second_foundation</title>
<path fill="none" stroke="#000000" d="M712.3334,-233.2142C756.5742,-218.7476 820.3911,-197.8797 866.3716,-182.8443"/>
<polygon fill="#000000" stroke="#000000" points="867.4823,-186.1635 875.8992,-179.7288 865.3066,-179.5102 867.4823,-186.1635"/>
</g>
<!-- library_special&#45;&gt;torture -->
<g id="edge38" class="edge">
<title>library_special&#45;&gt;torture</title>
<path fill="none" stroke="#000000" d="M653.6844,-231.8719C644.3756,-210.1125 626.8504,-173.1639 605,-146 596.0729,-134.902 584.6961,-124.3012 574.0177,-115.4204"/>
<polygon fill="#000000" stroke="#000000" points="576.0209,-112.5395 566.0402,-108.9848 571.6257,-117.9877 576.0209,-112.5395"/>
</g>
<!-- library_special&#45;&gt;private -->
<g id="edge39" class="edge">
<title>library_special&#45;&gt;private</title>
<path fill="none" stroke="#000000" d="M631.3072,-232.3891C608.8257,-219.0552 577.7884,-200.6469 553.5776,-186.2874"/>
<polygon fill="#000000" stroke="#000000" points="555.0514,-183.0922 544.6649,-181.0013 551.4805,-189.1129 555.0514,-183.0922"/>
</g>
<!-- library_special&#45;&gt;smugglers -->
<g id="edge34" class="edge">
<title>library_special&#45;&gt;smugglers</title>
<path fill="none" stroke="#000000" d="M597.6344,-233.9249C538.1825,-218.8427 449.5813,-196.3657 388.9818,-180.9924"/>
<polygon fill="#000000" stroke="#000000" points="389.6849,-177.56 379.1312,-178.4935 387.9635,-184.3451 389.6849,-177.56"/>
</g>
<!-- commune&#45;&gt;second_foundation -->
<g id="edge31" class="edge">
<title>commune&#45;&gt;second_foundation</title>
<path fill="none" stroke="#000000" d="M1174.0748,-236.6569C1123.5997,-221.9918 1042.2406,-198.3537 986.1009,-182.0428"/>
<polygon fill="#000000" stroke="#000000" points="986.8531,-178.6167 976.2737,-179.1876 984.9,-185.3387 986.8531,-178.6167"/>
</g>
<!-- private&#45;&gt;torture -->
<g id="edge37" class="edge">
<title>private&#45;&gt;torture</title>
<path fill="none" stroke="#000000" d="M522.1798,-145.9551C525.0043,-137.7074 528.4132,-127.7536 531.5493,-118.5962"/>
<polygon fill="#000000" stroke="#000000" points="534.8759,-119.685 534.8047,-109.0904 528.2535,-117.417 534.8759,-119.685"/>
</g>
<!-- hanse&#45;&gt;museum_acquisitions -->
<g id="edge46" class="edge">
<title>hanse&#45;&gt;museum_acquisitions</title>
<path fill="none" stroke="#000000" d="M258.4304,-415.5272C308.9334,-408.7626 389.573,-397.5429 459,-386 518.7515,-376.0658 585.7906,-363.4025 637.4909,-353.3057"/>
<polygon fill="#000000" stroke="#000000" points="638.4788,-356.6788 647.6198,-351.3222 637.1335,-349.8093 638.4788,-356.6788"/>
</g>
<!-- hanse&#45;&gt;travel -->
<g id="edge44" class="edge">
<title>hanse&#45;&gt;travel</title>
<path fill="none" stroke="#000000" d="M220.396,-404.1807C228.0876,-392.1539 238.3744,-376.0692 247.0248,-362.5431"/>
<polygon fill="#000000" stroke="#000000" points="249.9901,-364.4025 252.4293,-354.0923 244.093,-360.6311 249.9901,-364.4025"/>
</g>
<!-- hanse&#45;&gt;bureau -->
<g id="edge47" class="edge">
<title>hanse&#45;&gt;bureau</title>
<path fill="none" stroke="#000000" d="M175.5944,-407.8725C148.5761,-393.9508 115,-369.8419 115,-336 115,-336 115,-336 115,-91 115,-49.5794 223.3704,-31.5926 310.4905,-23.825"/>
<polygon fill="#000000" stroke="#000000" points="310.7959,-27.3117 320.461,-22.9717 310.199,-20.3372 310.7959,-27.3117"/>
</g>
<!-- hanse&#45;&gt;smugglers -->
<g id="edge45" class="edge">
<title>hanse&#45;&gt;smugglers</title>
<path fill="none" stroke="#000000" d="M194.8586,-404.5254C179.8347,-383.7165 159.803,-348.003 172,-318 195.0321,-261.3444 250.0364,-214.1219 286.646,-187.4692"/>
<polygon fill="#000000" stroke="#000000" points="288.9607,-190.1173 295.0702,-181.4614 284.8963,-184.4182 288.9607,-190.1173"/>
</g>
<!-- university&#45;&gt;commune -->
<g id="edge30" class="edge">
<title>university&#45;&gt;commune</title>
<path fill="none" stroke="#000000" d="M1553.1916,-324.5979C1491.6337,-311.2558 1386.86,-288.3897 1297,-268 1291.7284,-266.8039 1286.2569,-265.5498 1280.7716,-264.284"/>
<polygon fill="#000000" stroke="#000000" points="1281.4554,-260.8498 1270.9235,-262.0029 1279.8757,-267.6693 1281.4554,-260.8498"/>
</g>
<!-- university&#45;&gt;posthuman -->
<g id="edge35" class="edge">
<title>university&#45;&gt;posthuman</title>
<path fill="none" stroke="#000000" d="M1618.5707,-318.2395C1628.1541,-304.5978 1641.6002,-285.2368 1653,-268 1672.7253,-238.175 1670.5139,-225.0814 1696,-200 1700.6023,-195.4708 1705.8767,-191.255 1711.3373,-187.4211"/>
<polygon fill="#000000" stroke="#000000" points="1713.5715,-190.1407 1720.0017,-181.7203 1709.7239,-184.2929 1713.5715,-190.1407"/>
</g>
<!-- squads&#45;&gt;purity -->
<g id="edge10" class="edge">
<title>squads&#45;&gt;purity</title>
<path fill="none" stroke="#000000" d="M1553.9093,-151.7871C1565.2997,-149.8298 1576.9754,-147.8431 1588,-146 1680.3111,-130.5676 1786.8113,-113.5094 1855.8881,-102.5438"/>
<polygon fill="#000000" stroke="#000000" points="1856.474,-105.9947 1865.8021,-100.9711 1855.3772,-99.0812 1856.474,-105.9947"/>
</g>
<!-- admin&#45;&gt;museum -->
<g id="edge75" class="edge">
<title>admin&#45;&gt;museum</title>
<path fill="none" stroke="#000000" stroke-dasharray="1,5" d="M1746.8498,-489.7616C1742.9016,-478.053 1737.7004,-462.6289 1733.2579,-449.4544"/>
<polygon fill="none" stroke="#000000" points="1726.2515,-441.1954 1733.8322,-438.639 1736.3885,-446.2197 1728.8078,-448.776 1726.2515,-441.1954"/>
<polyline fill="none" stroke="#000000" points="1732.5982,-447.4978 1733.2372,-449.393 "/>
<text text-anchor="middle" x="1758.6655" y="-460.8" font-family="Times,serif" font-size="14.00" fill="#000000">hostile</text>
</g>
<!-- admin&#45;&gt;library -->
<g id="edge77" class="edge">
<title>admin&#45;&gt;library</title>
<path fill="none" stroke="#000000" stroke-dasharray="1,5" d="M1804.7392,-491.5201C1853.1591,-476.0975 1925.0231,-453.2075 1972.9035,-437.9567"/>
<polygon fill="none" stroke="#000000" points="1981.2285,-431.107 1983.6565,-438.7297 1976.0338,-441.1577 1973.6058,-433.535 1981.2285,-431.107"/>
<polyline fill="none" stroke="#000000" points="1974.8198,-437.3463 1972.9141,-437.9533 "/>
<text text-anchor="middle" x="1922.6655" y="-460.8" font-family="Times,serif" font-size="14.00" fill="#000000">hostile</text>
</g>
<!-- admin&#45;&gt;university -->
<g id="edge76" class="edge">
<title>admin&#45;&gt;university</title>
<path fill="none" stroke="#000000" stroke-dasharray="1,5" d="M1691.0923,-492.321C1663.4929,-482.0666 1633.293,-465.658 1615.6689,-440 1600.5129,-417.9351 1599.6211,-386.7354 1601.5823,-364.273"/>
<polygon fill="none" stroke="#000000" points="1598.7078,-353.8889 1606.6592,-354.7695 1605.7786,-362.7209 1597.8272,-361.8403 1598.7078,-353.8889"/>
<polyline fill="none" stroke="#000000" points="1601.8029,-362.2806 1601.5828,-364.2685 "/>
<text text-anchor="middle" x="1633.6655" y="-417.8" font-family="Times,serif" font-size="14.00" fill="#000000">hostile</text>
</g>
<!-- admin&#45;&gt;admin -->
<g id="edge74" class="edge">
<title>admin&#45;&gt;admin</title>
<path fill="none" stroke="#000000" stroke-dasharray="1,5" d="M1871.8193,-513.8782C1886.7403,-512.8422 1896.5598,-510.8828 1896.5598,-508 1896.5598,-505.8379 1891.0364,-504.1952 1881.9798,-503.0719"/>
<polygon fill="none" stroke="#000000" points="1871.4468,-506.1044 1872.1917,-498.1391 1880.157,-498.8841 1879.4121,-506.8493 1871.4468,-506.1044"/>
<polyline fill="none" stroke="#000000" points="1879.7845,-502.8667 1881.7758,-503.0529 "/>
<text text-anchor="middle" x="1915.2254" y="-503.8" font-family="Times,serif" font-size="14.00" fill="#000000">hostile</text>
</g>
<!-- Space Fleet&#45;&gt;fleet -->
<g id="edge4" class="edge">
<title>Space Fleet&#45;&gt;fleet</title>
<path fill="none" stroke="#000000" d="M1064,-635.9551C1064,-627.8828 1064,-618.1764 1064,-609.1817"/>
<polygon fill="#000000" stroke="#000000" points="1067.5001,-609.0903 1064,-599.0904 1060.5001,-609.0904 1067.5001,-609.0903"/>
</g>
</g>
</svg>
