<?xml version="1.0" encoding="UTF-8" standalone="no"?>
<!DOCTYPE svg PUBLIC "-//W3C//DTD SVG 1.1//EN"
 "http://www.w3.org/Graphics/SVG/1.1/DTD/svg11.dtd">
<!-- Generated by graphviz version 2.40.1 (20161225.0304)
 -->
<!-- Title: begets Pages: 1 -->
<svg width="2349pt" height="753pt"
 viewBox="0.00 0.00 2349.29 753.00" xmlns="http://www.w3.org/2000/svg" xmlns:xlink="http://www.w3.org/1999/xlink">
<g id="graph0" class="graph" transform="scale(1 1) rotate(0) translate(4 749)">
<title>begets</title>
<polygon fill="#ffffff" stroke="transparent" points="-4,4 -4,-749 2345.2889,-749 2345.2889,4 -4,4"/>
<!-- unknown_1 -->
<g id="node1" class="node">
<title>unknown_1</title>
<ellipse fill="none" stroke="#000000" cx="1390.2889" cy="-727" rx="27" ry="18"/>
<text text-anchor="middle" x="1390.2889" y="-722.8" font-family="Times,serif" font-size="14.00" fill="#000000">?</text>
</g>
<!-- Space Fleet -->
<g id="node34" class="node">
<title>Space Fleet</title>
<ellipse fill="none" stroke="#000000" cx="1390.2889" cy="-654" rx="51.2319" ry="18"/>
<text text-anchor="middle" x="1390.2889" y="-649.8" font-family="Times,serif" font-size="14.00" fill="#000000">Space Fleet</text>
</g>
<!-- unknown_1&#45;&gt;Space Fleet -->
<g id="edge3" class="edge">
<title>unknown_1&#45;&gt;Space Fleet</title>
<path fill="none" stroke="#000000" d="M1390.2889,-708.9551C1390.2889,-700.8828 1390.2889,-691.1764 1390.2889,-682.1817"/>
<polygon fill="#000000" stroke="#000000" points="1393.789,-682.0903 1390.2889,-672.0904 1386.789,-682.0904 1393.789,-682.0903"/>
</g>
<!-- unknown_2 -->
<g id="node2" class="node">
<title>unknown_2</title>
<ellipse fill="none" stroke="#000000" cx="2242.2889" cy="-727" rx="27" ry="18"/>
<text text-anchor="middle" x="2242.2889" y="-722.8" font-family="Times,serif" font-size="14.00" fill="#000000">?</text>
</g>
<!-- hierarchy -->
<g id="node19" class="node">
<title>hierarchy</title>
<ellipse fill="none" stroke="#000000" cx="2242.2889" cy="-654" rx="66.0524" ry="18"/>
<text text-anchor="middle" x="2242.2889" y="-649.8" font-family="Times,serif" font-size="14.00" fill="#000000">Time Hierarchy</text>
</g>
<!-- unknown_2&#45;&gt;hierarchy -->
<g id="edge6" class="edge">
<title>unknown_2&#45;&gt;hierarchy</title>
<path fill="none" stroke="#000000" d="M2242.2889,-708.9551C2242.2889,-700.8828 2242.2889,-691.1764 2242.2889,-682.1817"/>
<polygon fill="#000000" stroke="#000000" points="2245.789,-682.0903 2242.2889,-672.0904 2238.789,-682.0904 2245.789,-682.0903"/>
</g>
<!-- unknown_3 -->
<g id="node3" class="node">
<title>unknown_3</title>
<ellipse fill="none" stroke="#000000" cx="970.2889" cy="-250" rx="27" ry="18"/>
<text text-anchor="middle" x="970.2889" y="-245.8" font-family="Times,serif" font-size="14.00" fill="#000000">?</text>
</g>
<!-- posthuman -->
<g id="node28" class="node">
<title>posthuman</title>
<ellipse fill="none" stroke="#000000" cx="970.2889" cy="-164" rx="158.4361" ry="18"/>
<text text-anchor="middle" x="970.2889" y="-159.8" font-family="Times,serif" font-size="14.00" fill="#000000">Posthumanism Propagation Movemement</text>
</g>
<!-- unknown_3&#45;&gt;posthuman -->
<g id="edge7" class="edge">
<title>unknown_3&#45;&gt;posthuman</title>
<path fill="none" stroke="#000000" d="M970.2889,-231.7616C970.2889,-220.3597 970.2889,-205.4342 970.2889,-192.494"/>
<polygon fill="#000000" stroke="#000000" points="973.789,-192.2121 970.2889,-182.2121 966.789,-192.2121 973.789,-192.2121"/>
</g>
<!-- unknown_4 -->
<g id="node4" class="node">
<title>unknown_4</title>
<ellipse fill="none" stroke="#000000" cx="2314.2889" cy="-727" rx="27" ry="18"/>
<text text-anchor="middle" x="2314.2889" y="-722.8" font-family="Times,serif" font-size="14.00" fill="#000000">?</text>
</g>
<!-- the_agency -->
<g id="node5" class="node">
<title>the_agency</title>
<polygon fill="none" stroke="#000000" points="2157.8517,-672 1876.726,-672 1876.726,-636 2157.8517,-636 2157.8517,-672"/>
<text text-anchor="middle" x="2017.2889" y="-649.8" font-family="Times,serif" font-size="14.00" fill="#000000">Agency for the Preservation of Time and Space</text>
</g>
<!-- fleet -->
<g id="node7" class="node">
<title>fleet</title>
<ellipse fill="none" stroke="#000000" cx="1390.2889" cy="-581" rx="72.3341" ry="18"/>
<text text-anchor="middle" x="1390.2889" y="-576.8" font-family="Times,serif" font-size="14.00" fill="#000000">Space&#45;Time Fleet</text>
</g>
<!-- the_agency&#45;&gt;fleet -->
<g id="edge1" class="edge">
<title>the_agency&#45;&gt;fleet</title>
<path fill="none" stroke="#000000" d="M1876.5778,-637.6174C1749.6918,-622.8444 1567.8873,-601.6773 1466.3347,-589.8538"/>
<polygon fill="#000000" stroke="#000000" points="1466.4988,-586.3494 1456.1611,-588.6693 1465.6893,-593.3024 1466.4988,-586.3494"/>
</g>
<!-- conservatory -->
<g id="node14" class="node">
<title>conservatory</title>
<ellipse fill="none" stroke="#000000" cx="2123.2889" cy="-508" rx="78.1401" ry="18"/>
<text text-anchor="middle" x="2123.2889" y="-503.8" font-family="Times,serif" font-size="14.00" fill="#000000">Time Conservatory</text>
</g>
<!-- the_agency&#45;&gt;conservatory -->
<g id="edge2" class="edge">
<title>the_agency&#45;&gt;conservatory</title>
<path fill="none" stroke="#000000" d="M2030.4995,-635.8042C2049.088,-610.2012 2083.065,-563.4027 2104.3421,-534.0966"/>
<polygon fill="#000000" stroke="#000000" points="2107.2018,-536.115 2110.2447,-525.9665 2101.5373,-532.0023 2107.2018,-536.115"/>
</g>
<!-- private -->
<g id="node24" class="node">
<title>private</title>
<ellipse fill="none" stroke="#000000" cx="80.2889" cy="-164" rx="80.0783" ry="18"/>
<text text-anchor="middle" x="80.2889" y="-159.8" font-family="Times,serif" font-size="14.00" fill="#000000">Time Investigations</text>
</g>
<!-- the_agency&#45;&gt;private -->
<g id="edge40" class="edge">
<title>the_agency&#45;&gt;private</title>
<path fill="none" stroke="#000000" d="M1876.4744,-649.5498C1434.2287,-635.4589 102.2889,-592.0989 102.2889,-581 102.2889,-581 102.2889,-581 102.2889,-250 102.2889,-230.0905 96.6864,-208.3744 91.1358,-191.7453"/>
<polygon fill="#000000" stroke="#000000" points="94.3644,-190.3764 87.7371,-182.1103 87.7631,-192.7051 94.3644,-190.3764"/>
</g>
<!-- bureau -->
<g id="node25" class="node">
<title>bureau</title>
<ellipse fill="none" stroke="#000000" cx="2011.2889" cy="-18" rx="101.3002" ry="18"/>
<text text-anchor="middle" x="2011.2889" y="-13.8" font-family="Times,serif" font-size="14.00" fill="#000000">Time &amp; Measures Bureau</text>
</g>
<!-- the_agency&#45;&gt;bureau -->
<g id="edge41" class="edge">
<title>the_agency&#45;&gt;bureau</title>
<path fill="none" stroke="#000000" d="M2148.7781,-635.9762C2237.4266,-621.958 2338.2889,-601.5033 2338.2889,-581 2338.2889,-581 2338.2889,-581 2338.2889,-91 2338.2889,-66.8777 2200.9941,-43.3664 2104.3296,-29.8023"/>
<polygon fill="#000000" stroke="#000000" points="2104.6138,-26.3083 2094.2275,-28.4001 2103.6513,-33.2418 2104.6138,-26.3083"/>
</g>
<!-- hanse -->
<g id="node26" class="node">
<title>hanse</title>
<ellipse fill="none" stroke="#000000" cx="1900.2889" cy="-422" rx="52.5489" ry="18"/>
<text text-anchor="middle" x="1900.2889" y="-417.8" font-family="Times,serif" font-size="14.00" fill="#000000">Time Hanse</text>
</g>
<!-- the_agency&#45;&gt;hanse -->
<g id="edge43" class="edge">
<title>the_agency&#45;&gt;hanse</title>
<path fill="none" stroke="#000000" d="M2015.7475,-635.7063C2013.312,-613.2269 2007.3158,-574.3388 1993.2889,-544 1976.0174,-506.6435 1945.7102,-469.9324 1924.3983,-446.6994"/>
<polygon fill="#000000" stroke="#000000" points="1926.9281,-444.2804 1917.5474,-439.3557 1921.8096,-449.0554 1926.9281,-444.2804"/>
</g>
<!-- brigade -->
<g id="node6" class="node">
<title>brigade</title>
<ellipse fill="none" stroke="#000000" cx="1058.2889" cy="-508" rx="58.8368" ry="18"/>
<text text-anchor="middle" x="1058.2889" y="-503.8" font-family="Times,serif" font-size="14.00" fill="#000000">Time Brigade</text>
</g>
<!-- federation -->
<g id="node8" class="node">
<title>federation</title>
<ellipse fill="none" stroke="#000000" cx="654.2889" cy="-250" rx="68.4837" ry="18"/>
<text text-anchor="middle" x="654.2889" y="-245.8" font-family="Times,serif" font-size="14.00" fill="#000000">Time Federation</text>
</g>
<!-- brigade&#45;&gt;federation -->
<g id="edge51" class="edge">
<title>brigade&#45;&gt;federation</title>
<path fill="none" stroke="#000000" stroke-dasharray="1,5" d="M1000.4336,-504.6629C913.4876,-499.182 757.044,-487.334 736.2889,-472 673.922,-425.923 658.9449,-327.1298 655.3801,-278.3887"/>
<polygon fill="none" stroke="#000000" points="650.7592,-268.4803 658.744,-267.986 659.2382,-275.9707 651.2535,-276.465 650.7592,-268.4803"/>
<polyline fill="none" stroke="#000000" points="655.2459,-276.2179 655.3694,-278.2141 "/>
<text text-anchor="middle" x="695.9544" y="-374.8" font-family="Times,serif" font-size="14.00" fill="#000000">hostile</text>
</g>
<!-- babylon -->
<g id="node9" class="node">
<title>babylon</title>
<ellipse fill="none" stroke="#000000" cx="1181.2889" cy="-422" rx="67.1696" ry="18"/>
<text text-anchor="middle" x="1181.2889" y="-417.8" font-family="Times,serif" font-size="14.00" fill="#000000">Babylon Project</text>
</g>
<!-- brigade&#45;&gt;babylon -->
<g id="edge50" class="edge">
<title>brigade&#45;&gt;babylon</title>
<path fill="none" stroke="#000000" stroke-dasharray="1,5" d="M1082.0045,-491.4183C1101.0248,-478.1196 1127.9175,-459.3165 1148.9178,-444.6334"/>
<polygon fill="none" stroke="#000000" points="1154.9343,-435.546 1159.5184,-442.1024 1152.9621,-446.6865 1148.3779,-440.1302 1154.9343,-435.546"/>
<polyline fill="none" stroke="#000000" points="1150.67,-443.4084 1149.0309,-444.5544 "/>
<text text-anchor="middle" x="1145.9544" y="-460.8" font-family="Times,serif" font-size="14.00" fill="#000000">hostile</text>
</g>
<!-- first_parlament -->
<g id="node12" class="node">
<title>first_parlament</title>
<ellipse fill="none" stroke="#000000" cx="988.2889" cy="-336" rx="66.5542" ry="18"/>
<text text-anchor="middle" x="988.2889" y="-331.8" font-family="Times,serif" font-size="14.00" fill="#000000">Time Parlament</text>
</g>
<!-- brigade&#45;&gt;first_parlament -->
<g id="edge59" class="edge">
<title>brigade&#45;&gt;first_parlament</title>
<path fill="none" stroke="#000000" stroke-dasharray="1,5" d="M1038.198,-490.8136C1024.9072,-478.1959 1008.3934,-459.8547 999.7576,-440 987.5132,-411.8487 986.4371,-375.5421 987.1198,-354.1162"/>
<text text-anchor="middle" x="1018.5545" y="-417.8" font-family="Times,serif" font-size="14.00" fill="#000000">rejects</text>
</g>
<!-- second_parlament -->
<g id="node13" class="node">
<title>second_parlament</title>
<ellipse fill="none" stroke="#000000" cx="1433.2889" cy="-91" rx="94.7328" ry="18"/>
<text text-anchor="middle" x="1433.2889" y="-86.8" font-family="Times,serif" font-size="14.00" fill="#000000">Second Time Parlament</text>
</g>
<!-- brigade&#45;&gt;second_parlament -->
<g id="edge60" class="edge">
<title>brigade&#45;&gt;second_parlament</title>
<path fill="none" stroke="#000000" stroke-dasharray="1,5" d="M1113.6436,-501.6716C1157.5689,-493.9654 1217.9306,-477.0227 1257.2889,-440 1298.5601,-401.1779 1321.6517,-367.616 1294.2889,-318 1287.0483,-304.871 1277.107,-309.7973 1265.7576,-300 1251.5695,-287.7521 1244.7982,-285.5768 1238.2889,-268 1232.7323,-252.9958 1232.0395,-246.7291 1238.2889,-232 1265.5394,-167.774 1340.2192,-127.34 1388.8514,-106.9884"/>
<text text-anchor="middle" x="1284.5545" y="-288.8" font-family="Times,serif" font-size="14.00" fill="#000000">rejects</text>
</g>
<!-- travel -->
<g id="node20" class="node">
<title>travel</title>
<ellipse fill="none" stroke="#000000" cx="2085.2889" cy="-336" rx="82.534" ry="18"/>
<text text-anchor="middle" x="2085.2889" y="-331.8" font-family="Times,serif" font-size="14.00" fill="#000000">Time Travel Agency</text>
</g>
<!-- brigade&#45;&gt;travel -->
<g id="edge57" class="edge">
<title>brigade&#45;&gt;travel</title>
<path fill="none" stroke="#000000" stroke-dasharray="1,5" d="M1116.9785,-506.649C1230.7946,-503.5584 1477.5039,-494.4314 1559.2889,-472 1572.7067,-468.3199 1573.8283,-461.5204 1587.2889,-458 1668.0034,-436.8903 1885.0265,-471.4796 1962.2889,-440 1984.612,-430.9047 1984.5394,-419.672 2002.8543,-404 2020.2597,-389.1063 2040.0526,-372.7603 2055.8806,-359.8278"/>
<polygon fill="none" stroke="#000000" points="2061.2351,-350.3017 2066.2902,-356.5022 2060.0896,-361.5573 2055.0345,-355.3568 2061.2351,-350.3017"/>
<polyline fill="none" stroke="#000000" points="2057.5621,-358.457 2056.0119,-359.7208 "/>
<text text-anchor="middle" x="2037.5062" y="-417.8" font-family="Times,serif" font-size="14.00" fill="#000000">semi&#45;hostile</text>
</g>
<!-- commune -->
<g id="node22" class="node">
<title>commune</title>
<ellipse fill="none" stroke="#000000" cx="1393.2889" cy="-250" rx="67.5405" ry="18"/>
<text text-anchor="middle" x="1393.2889" y="-245.8" font-family="Times,serif" font-size="14.00" fill="#000000">Time Commune</text>
</g>
<!-- brigade&#45;&gt;commune -->
<g id="edge52" class="edge">
<title>brigade&#45;&gt;commune</title>
<path fill="none" stroke="#000000" stroke-dasharray="1,5" d="M1115.1452,-503.2132C1186.3792,-496.7366 1301.0228,-484.5429 1316.2889,-472 1346.9468,-446.8108 1375.4736,-331.7142 1387.4053,-277.8943"/>
<polygon fill="none" stroke="#000000" points="1385.6581,-267.1393 1393.4742,-268.8449 1391.7685,-276.661 1383.9525,-274.9553 1385.6581,-267.1393"/>
<polyline fill="none" stroke="#000000" points="1387.8605,-275.8082 1387.4341,-277.7622 "/>
<text text-anchor="middle" x="1381.9544" y="-374.8" font-family="Times,serif" font-size="14.00" fill="#000000">hostile</text>
</g>
<!-- torture -->
<g id="node23" class="node">
<title>torture</title>
<ellipse fill="none" stroke="#000000" cx="319.2889" cy="-91" rx="153.7905" ry="18"/>
<text text-anchor="middle" x="319.2889" y="-86.8" font-family="Times,serif" font-size="14.00" fill="#000000">Time Will Tell Interrogation Department</text>
</g>
<!-- brigade&#45;&gt;torture -->
<g id="edge36" class="edge">
<title>brigade&#45;&gt;torture</title>
<path fill="none" stroke="#000000" d="M1001.6825,-502.7807C962.5366,-499.1765 909.2502,-494.2803 862.2889,-490 714.123,-476.4955 669.7322,-494.4882 531.2889,-440 458.7025,-411.4316 440.3789,-401.2204 378.2889,-354 356.8386,-337.6868 217.5654,-206.9124 207.2889,-182 201.1875,-167.209 198.8285,-159.5802 207.2889,-146 216.6248,-131.0145 231.3687,-119.9961 247.1307,-111.9376"/>
<polygon fill="#000000" stroke="#000000" points="248.9398,-114.9544 256.4956,-107.5274 245.9574,-108.6215 248.9398,-114.9544"/>
</g>
<!-- brigade&#45;&gt;private -->
<g id="edge56" class="edge">
<title>brigade&#45;&gt;private</title>
<path fill="none" stroke="#000000" stroke-dasharray="1,5" d="M1002.5807,-502.2478C963.3812,-498.356 909.6692,-493.336 862.2889,-490 780.8369,-484.265 574.1927,-493.0118 495.2889,-472 383.719,-442.2893 342.8619,-438.1924 263.8543,-354 212.8299,-299.6272 252.8201,-249.7612 197.2889,-200 189.12,-192.6799 168.5161,-185.4099 146.8335,-179.3397"/>
<polygon fill="none" stroke="#000000" points="136.1293,-180.5888 138.2178,-172.8662 145.9404,-174.9546 143.852,-182.6772 136.1293,-180.5888"/>
<polyline fill="none" stroke="#000000" points="144.8962,-178.8159 146.8268,-179.338 "/>
<text text-anchor="middle" x="298.5062" y="-331.8" font-family="Times,serif" font-size="14.00" fill="#000000">semi&#45;hostile</text>
</g>
<!-- brigade&#45;&gt;hanse -->
<g id="edge58" class="edge">
<title>brigade&#45;&gt;hanse</title>
<path fill="none" stroke="#000000" stroke-dasharray="1,5" d="M1113.4857,-501.598C1201.1289,-491.55 1377.5486,-471.801 1527.4197,-458 1630.3473,-448.5218 1656.4655,-450.5478 1759.2889,-440 1786.2592,-437.2333 1816.0491,-433.5262 1841.2712,-430.1954"/>
<polygon fill="none" stroke="#000000" points="1851.8793,-432.3128 1841.5046,-430.1644 1850.9547,-425.3742 1851.8793,-432.3128"/>
<text text-anchor="middle" x="1544.2234" y="-460.8" font-family="Times,serif" font-size="14.00" fill="#000000">treaty</text>
</g>
<!-- smugglers -->
<g id="node27" class="node">
<title>smugglers</title>
<ellipse fill="none" stroke="#000000" cx="1775.2889" cy="-164" rx="95.7278" ry="18"/>
<text text-anchor="middle" x="1775.2889" y="-159.8" font-family="Times,serif" font-size="14.00" fill="#000000">Honest Time Smugglers</text>
</g>
<!-- brigade&#45;&gt;smugglers -->
<g id="edge53" class="edge">
<title>brigade&#45;&gt;smugglers</title>
<path fill="none" stroke="#000000" stroke-dasharray="1,5" d="M1115.239,-503.613C1171.7939,-498.5585 1260.7367,-488.7207 1336.2889,-472 1339.1624,-471.3641 1435.0533,-441.914 1437.2889,-440 1483.2887,-400.6157 1447.7624,-351.8751 1497.9578,-318 1540.5142,-289.2802 1680.9119,-319.7812 1728.2889,-300 1748.3518,-291.6232 1755.3109,-287.3166 1765.2889,-268 1777.3953,-244.5629 1778.9739,-214.1914 1778.0792,-192.3278"/>
<polygon fill="none" stroke="#000000" points="1773.4602,-182.2926 1781.4453,-181.8059 1781.9321,-189.791 1773.9469,-190.2778 1773.4602,-182.2926"/>
<polyline fill="none" stroke="#000000" points="1777.9395,-190.0344 1778.0612,-192.0307 "/>
<text text-anchor="middle" x="1516.9544" y="-331.8" font-family="Times,serif" font-size="14.00" fill="#000000">hostile</text>
</g>
<!-- brigade&#45;&gt;posthuman -->
<g id="edge55" class="edge">
<title>brigade&#45;&gt;posthuman</title>
<path fill="none" stroke="#000000" stroke-dasharray="1,5" d="M1011.811,-496.9625C954.9881,-482.0865 866.2889,-453.7762 866.2889,-422 866.2889,-422 866.2889,-422 866.2889,-250 866.2889,-221.0778 890.4715,-200.0515 915.5145,-186.0313"/>
<polygon fill="none" stroke="#000000" points="922.5049,-177.8245 926.2356,-184.9014 919.1587,-188.6321 915.428,-181.5552 922.5049,-177.8245"/>
<polyline fill="none" stroke="#000000" points="917.2933,-185.0937 915.5241,-186.0263 "/>
<text text-anchor="middle" x="884.9544" y="-331.8" font-family="Times,serif" font-size="14.00" fill="#000000">hostile</text>
</g>
<!-- university -->
<g id="node29" class="node">
<title>university</title>
<ellipse fill="none" stroke="#000000" cx="1217.2889" cy="-336" rx="68.0164" ry="18"/>
<text text-anchor="middle" x="1217.2889" y="-331.8" font-family="Times,serif" font-size="14.00" fill="#000000">Time University</text>
</g>
<!-- brigade&#45;&gt;university -->
<g id="edge54" class="edge">
<title>brigade&#45;&gt;university</title>
<path fill="none" stroke="#000000" stroke-dasharray="1,5" d="M1054.8909,-489.9667C1051.7321,-467.6284 1049.884,-429.4189 1067.9578,-404 1087.7691,-376.1377 1121.8239,-359.4545 1152.4137,-349.5923"/>
<polygon fill="none" stroke="#000000" points="1161.0405,-342.7965 1163.362,-350.4523 1155.7062,-352.7738 1153.3847,-345.1181 1161.0405,-342.7965"/>
<polyline fill="none" stroke="#000000" points="1154.5454,-348.9459 1152.6315,-349.5263 "/>
<text text-anchor="middle" x="1086.9544" y="-417.8" font-family="Times,serif" font-size="14.00" fill="#000000">hostile</text>
</g>
<!-- people -->
<g id="node30" class="node">
<title>people</title>
<ellipse fill="none" stroke="#000000" cx="309.2889" cy="-164" rx="93.0387" ry="18"/>
<text text-anchor="middle" x="309.2889" y="-159.8" font-family="Times,serif" font-size="14.00" fill="#000000">People&#39;s Time Brigades</text>
</g>
<!-- brigade&#45;&gt;people -->
<g id="edge8" class="edge">
<title>brigade&#45;&gt;people</title>
<path fill="none" stroke="#000000" d="M1001.9485,-502.8389C912.4519,-494.5196 745.1313,-478.4282 718.2889,-472 597.0782,-442.9727 572.8627,-416.1041 456.2889,-372 434.979,-363.9377 425.3486,-369.1022 408.2889,-354 381.963,-330.6948 340.5288,-238.1917 320.658,-191.4041"/>
<polygon fill="#000000" stroke="#000000" points="323.8687,-190.0099 316.7583,-182.1554 317.4186,-192.7296 323.8687,-190.0099"/>
</g>
<!-- squads -->
<g id="node31" class="node">
<title>squads</title>
<ellipse fill="none" stroke="#000000" cx="699.2889" cy="-164" rx="94.57" ry="18"/>
<text text-anchor="middle" x="699.2889" y="-159.8" font-family="Times,serif" font-size="14.00" fill="#000000">Time Protection Squads</text>
</g>
<!-- brigade&#45;&gt;squads -->
<g id="edge9" class="edge">
<title>brigade&#45;&gt;squads</title>
<path fill="none" stroke="#000000" d="M1001.0783,-503.7412C912.007,-495.5162 750.2889,-473.4925 750.2889,-422 750.2889,-422 750.2889,-422 750.2889,-250 750.2889,-227.5316 737.2509,-205.7983 724.3593,-189.8007"/>
<polygon fill="#000000" stroke="#000000" points="726.8501,-187.3272 717.701,-181.9843 721.5213,-191.8665 726.8501,-187.3272"/>
</g>
<!-- fleet&#45;&gt;brigade -->
<g id="edge5" class="edge">
<title>fleet&#45;&gt;brigade</title>
<path fill="none" stroke="#000000" d="M1335.8376,-569.0273C1275.2826,-555.7125 1177.8681,-534.293 1116.0196,-520.6938"/>
<polygon fill="#000000" stroke="#000000" points="1116.5517,-517.2273 1106.0334,-518.498 1115.0484,-524.064 1116.5517,-517.2273"/>
</g>
<!-- fleet&#45;&gt;federation -->
<g id="edge11" class="edge">
<title>fleet&#45;&gt;federation</title>
<path fill="none" stroke="#000000" d="M1322.0173,-574.9791C1173.1534,-561.0433 824.215,-523.7601 718.2889,-472 644.7228,-436.0524 655.3152,-381.8232 652.2889,-300 652.0287,-292.9666 652.1336,-285.3773 652.3984,-278.2883"/>
<polygon fill="#000000" stroke="#000000" points="655.9063,-278.2091 652.8966,-268.0507 648.9146,-277.8687 655.9063,-278.2091"/>
</g>
<!-- fleet&#45;&gt;babylon -->
<g id="edge16" class="edge">
<title>fleet&#45;&gt;babylon</title>
<path fill="none" stroke="#000000" d="M1367.5244,-563.6815C1329.7349,-534.9326 1254.0327,-477.341 1211.7078,-445.1417"/>
<polygon fill="#000000" stroke="#000000" points="1213.7869,-442.3256 1203.709,-439.0565 1209.5485,-447.8967 1213.7869,-442.3256"/>
</g>
<!-- fleet&#45;&gt;travel -->
<g id="edge13" class="edge">
<title>fleet&#45;&gt;travel</title>
<path fill="none" stroke="#000000" d="M1461.9934,-578.0804C1568.9588,-573.2316 1765.0366,-562.3033 1833.2889,-545 1945.358,-516.5882 2001.8225,-532.4183 2071.2889,-440 2087.5426,-418.376 2089.6514,-386.8489 2088.5557,-364.1814"/>
<polygon fill="#000000" stroke="#000000" points="2092.043,-363.8773 2087.8375,-354.1529 2085.0608,-364.3774 2092.043,-363.8773"/>
</g>
<!-- tabloid -->
<g id="node21" class="node">
<title>tabloid</title>
<ellipse fill="none" stroke="#000000" cx="2098.2889" cy="-91" rx="55.4802" ry="18"/>
<text text-anchor="middle" x="2098.2889" y="-86.8" font-family="Times,serif" font-size="14.00" fill="#000000">Time Stories</text>
</g>
<!-- fleet&#45;&gt;tabloid -->
<g id="edge64" class="edge">
<title>fleet&#45;&gt;tabloid</title>
<path fill="none" stroke="#000000" stroke-dasharray="1,5" d="M1462.689,-580.2324C1636.1366,-577.7382 2071.3307,-567.4186 2210.2889,-526 2225.9268,-521.3389 2242.2889,-524.3178 2242.2889,-508 2242.2889,-508 2242.2889,-508 2242.2889,-207 2242.2889,-157.1141 2189.2298,-125.049 2147.5269,-107.551"/>
<polygon fill="none" stroke="#000000" points="2136.5257,-107.4366 2139.5117,-100.0147 2146.9336,-103.0008 2143.9475,-110.4226 2136.5257,-107.4366"/>
<polyline fill="none" stroke="#000000" points="2145.4406,-106.7117 2147.296,-107.4582 "/>
<text text-anchor="middle" x="2276.5062" y="-331.8" font-family="Times,serif" font-size="14.00" fill="#000000">semi&#45;hostile</text>
</g>
<!-- fleet&#45;&gt;private -->
<g id="edge63" class="edge">
<title>fleet&#45;&gt;private</title>
<path fill="none" stroke="#000000" stroke-dasharray="1,5" d="M1317.5038,-580.4248C1056.5491,-577.8905 183.2889,-565.1407 183.2889,-508 183.2889,-508 183.2889,-508 183.2889,-250 183.2889,-219.8881 157.0295,-198.2592 131.0286,-184.2237"/>
<polygon fill="none" stroke="#000000" points="120.0728,-183.1398 123.6992,-176.0089 130.8301,-179.6353 127.2038,-186.7662 120.0728,-183.1398"/>
<polyline fill="none" stroke="#000000" points="129.0169,-183.2007 130.7997,-184.1073 "/>
<text text-anchor="middle" x="217.5062" y="-374.8" font-family="Times,serif" font-size="14.00" fill="#000000">semi&#45;hostile</text>
</g>
<!-- fleet&#45;&gt;smugglers -->
<g id="edge61" class="edge">
<title>fleet&#45;&gt;smugglers</title>
<path fill="none" stroke="#000000" stroke-dasharray="1,5" d="M1459.6423,-575.7951C1568.9683,-566.9746 1771.5603,-547.8985 1796.2889,-526 1831.6936,-494.6472 1846.5966,-364.9928 1841.2889,-318 1835.2507,-264.5401 1841.2614,-246.55 1814.2889,-200 1811.992,-196.036 1809.1163,-192.2539 1805.9732,-188.7325"/>
<polygon fill="none" stroke="#000000" points="1795.9431,-184.2843 1801.6292,-178.6568 1807.2567,-184.343 1801.5706,-189.9704 1795.9431,-184.2843"/>
<polyline fill="none" stroke="#000000" points="1804.4136,-187.1567 1805.8205,-188.5782 "/>
<text text-anchor="middle" x="1859.9544" y="-374.8" font-family="Times,serif" font-size="14.00" fill="#000000">hostile</text>
</g>
<!-- purity -->
<g id="node32" class="node">
<title>purity</title>
<ellipse fill="none" stroke="#000000" cx="699.2889" cy="-91" rx="75.7595" ry="18"/>
<text text-anchor="middle" x="699.2889" y="-86.8" font-family="Times,serif" font-size="14.00" fill="#000000">Time Purity Patrol</text>
</g>
<!-- fleet&#45;&gt;purity -->
<g id="edge62" class="edge">
<title>fleet&#45;&gt;purity</title>
<path fill="none" stroke="#000000" stroke-dasharray="1,5" d="M1317.9308,-579.6762C1175.2418,-576.2485 862.7906,-564.4628 763.2889,-526 726.3101,-511.7057 723.075,-496.9794 692.2889,-472 550.9212,-357.2965 329.9337,-287.6497 444.2889,-146 465.835,-119.3113 551.1601,-104.95 617.2453,-97.6719"/>
<polygon fill="none" stroke="#000000" points="626.8361,-92.6288 627.6826,-100.5838 619.7275,-101.4304 618.881,-93.4753 626.8361,-92.6288"/>
<polyline fill="none" stroke="#000000" points="619.3043,-97.4529 617.3155,-97.6645 "/>
<text text-anchor="middle" x="536.9544" y="-331.8" font-family="Times,serif" font-size="14.00" fill="#000000">hostile</text>
</g>
<!-- foundation -->
<g id="node10" class="node">
<title>foundation</title>
<ellipse fill="none" stroke="#000000" cx="2032.2889" cy="-164" rx="143.9525" ry="18"/>
<text text-anchor="middle" x="2032.2889" y="-159.8" font-family="Times,serif" font-size="14.00" fill="#000000">Foundation for a Time Encyclopaedia</text>
</g>
<!-- federation&#45;&gt;foundation -->
<g id="edge12" class="edge">
<title>federation&#45;&gt;foundation</title>
<path fill="none" stroke="#000000" d="M720.7498,-245.5137C777.4746,-241.7358 861.2251,-236.2792 934.2889,-232 1354.5999,-207.3832 1460.7898,-217.8866 1880.2889,-182 1893.6047,-180.8609 1907.5551,-179.4746 1921.3767,-177.9823"/>
<polygon fill="#000000" stroke="#000000" points="1921.85,-181.4514 1931.4074,-176.8789 1921.0846,-174.4934 1921.85,-181.4514"/>
</g>
<!-- second_foundation -->
<g id="node11" class="node">
<title>second_foundation</title>
<ellipse fill="none" stroke="#000000" cx="1433.2889" cy="-164" rx="97.1726" ry="18"/>
<text text-anchor="middle" x="1433.2889" y="-159.8" font-family="Times,serif" font-size="14.00" fill="#000000">Covert Time Foundation</text>
</g>
<!-- federation&#45;&gt;second_foundation -->
<g id="edge15" class="edge">
<title>federation&#45;&gt;second_foundation</title>
<path fill="none" stroke="#000000" d="M717.7074,-242.9987C854.6489,-227.8807 1178.6009,-192.117 1339.3944,-174.3658"/>
<polygon fill="#000000" stroke="#000000" points="1340.1904,-177.7992 1349.7459,-173.223 1339.4222,-170.8415 1340.1904,-177.7992"/>
</g>
<!-- federation&#45;&gt;torture -->
<g id="edge66" class="edge">
<title>federation&#45;&gt;torture</title>
<path fill="none" stroke="#000000" stroke-dasharray="1,5" d="M616.8178,-234.9094C601.6578,-228.6499 584.0483,-221.1824 568.2889,-214 495.1277,-180.6564 411.6285,-138.5633 362.3011,-113.2666"/>
<polygon fill="none" stroke="#000000" points="351.3736,-112.1496 355.0294,-105.0337 362.1453,-108.6896 358.4895,-115.8054 351.3736,-112.1496"/>
<polyline fill="none" stroke="#000000" points="360.3174,-112.2475 362.0964,-113.1614 "/>
<text text-anchor="middle" x="517.9544" y="-159.8" font-family="Times,serif" font-size="14.00" fill="#000000">hostile</text>
</g>
<!-- federation&#45;&gt;posthuman -->
<g id="edge69" class="edge">
<title>federation&#45;&gt;posthuman</title>
<path fill="none" stroke="#000000" stroke-dasharray="1,5" d="M689.454,-234.4738C715.1913,-223.5949 751.1775,-209.3795 783.8543,-200 810.5222,-192.3453 839.8062,-185.8327 867.1038,-180.5386"/>
<polygon fill="none" stroke="#000000" points="876.3145,-174.7139 877.8102,-182.5728 869.9512,-184.0685 868.4556,-176.2096 876.3145,-174.7139"/>
<polyline fill="none" stroke="#000000" points="869.2034,-180.139 867.2387,-180.513 "/>
<text text-anchor="middle" x="818.5062" y="-202.8" font-family="Times,serif" font-size="14.00" fill="#000000">semi&#45;hostile</text>
</g>
<!-- federation&#45;&gt;people -->
<g id="edge68" class="edge">
<title>federation&#45;&gt;people</title>
<path fill="none" stroke="#000000" stroke-dasharray="1,5" d="M595.1361,-240.7835C557.3502,-234.4118 507.4597,-225.0987 463.9578,-214 430.0548,-205.3503 392.7121,-193.351 363.2137,-183.2754"/>
<polygon fill="none" stroke="#000000" points="352.2246,-183.7219 354.8293,-176.1578 362.3934,-178.7625 359.7887,-186.3266 352.2246,-183.7219"/>
<polyline fill="none" stroke="#000000" points="361.091,-182.5445 362.9821,-183.1957 "/>
<text text-anchor="middle" x="482.9544" y="-202.8" font-family="Times,serif" font-size="14.00" fill="#000000">hostile</text>
</g>
<!-- federation&#45;&gt;squads -->
<g id="edge67" class="edge">
<title>federation&#45;&gt;squads</title>
<path fill="none" stroke="#000000" stroke-dasharray="1,5" d="M663.8322,-231.7616C670.0189,-219.9383 678.188,-204.3261 685.1256,-191.0676"/>
<polygon fill="none" stroke="#000000" points="686.3695,-180.0627 693.4577,-183.7717 689.7487,-190.86 682.6604,-187.151 686.3695,-180.0627"/>
<polyline fill="none" stroke="#000000" points="686.2046,-189.0055 685.2773,-190.7775 "/>
<text text-anchor="middle" x="698.9544" y="-202.8" font-family="Times,serif" font-size="14.00" fill="#000000">hostile</text>
</g>
<!-- federation&#45;&gt;purity -->
<g id="edge65" class="edge">
<title>federation&#45;&gt;purity</title>
<path fill="none" stroke="#000000" stroke-dasharray="1,5" d="M620.6611,-234.1967C584.2745,-214.8618 534.4091,-180.4332 557.9578,-146 567.6977,-131.7582 604.5084,-117.6831 638.1185,-107.3369"/>
<polygon fill="none" stroke="#000000" points="646.7988,-100.5544 649.0993,-108.2165 641.4372,-110.517 639.1367,-102.8549 646.7988,-100.5544"/>
<polyline fill="none" stroke="#000000" points="640.2869,-106.6859 638.3714,-107.2611 "/>
<text text-anchor="middle" x="576.9544" y="-159.8" font-family="Times,serif" font-size="14.00" fill="#000000">hostile</text>
</g>
<!-- babylon&#45;&gt;first_parlament -->
<g id="edge17" class="edge">
<title>babylon&#45;&gt;first_parlament</title>
<path fill="none" stroke="#000000" d="M1133.1864,-409.3247C1113.0252,-403.3039 1089.5986,-395.3641 1069.2889,-386 1052.6352,-378.3216 1035.1996,-367.9051 1020.7891,-358.5669"/>
<polygon fill="#000000" stroke="#000000" points="1022.5157,-355.513 1012.2415,-352.9261 1018.6601,-361.3554 1022.5157,-355.513"/>
</g>
<!-- babylon&#45;&gt;second_parlament -->
<g id="edge19" class="edge">
<title>babylon&#45;&gt;second_parlament</title>
<path fill="none" stroke="#000000" d="M1154.6998,-405.1977C1138.0534,-393.1229 1117.8273,-375.2603 1107.2889,-354 1083.156,-305.3143 1069.9496,-277.7372 1099.2889,-232 1128.0664,-187.1386 1161.5034,-207.5305 1208.2889,-182 1248.1153,-160.267 1252.7006,-145.1351 1294.2889,-127 1313.9164,-118.4412 1336.0215,-111.5729 1356.7318,-106.2243"/>
<polygon fill="#000000" stroke="#000000" points="1357.5974,-109.6157 1366.4513,-103.7968 1355.9012,-102.8243 1357.5974,-109.6157"/>
</g>
<!-- foundation&#45;&gt;second_parlament -->
<g id="edge20" class="edge">
<title>foundation&#45;&gt;second_parlament</title>
<path fill="none" stroke="#000000" d="M1928.9762,-151.4093C1814.5754,-137.4673 1631.985,-115.2151 1523.2489,-101.9634"/>
<polygon fill="#000000" stroke="#000000" points="1523.6354,-98.4847 1513.2854,-100.7492 1522.7886,-105.4333 1523.6354,-98.4847"/>
</g>
<!-- foundation&#45;&gt;tabloid -->
<g id="edge42" class="edge">
<title>foundation&#45;&gt;tabloid</title>
<path fill="none" stroke="#000000" d="M2048.6035,-145.9551C2056.7963,-136.8933 2066.8512,-125.772 2075.7673,-115.9102"/>
<polygon fill="#000000" stroke="#000000" points="2078.5061,-118.0998 2082.6164,-108.3347 2073.3137,-113.4052 2078.5061,-118.0998"/>
</g>
<!-- second_foundation&#45;&gt;second_parlament -->
<g id="edge21" class="edge">
<title>second_foundation&#45;&gt;second_parlament</title>
<path fill="none" stroke="#000000" d="M1433.2889,-145.9551C1433.2889,-137.8828 1433.2889,-128.1764 1433.2889,-119.1817"/>
<polygon fill="#000000" stroke="#000000" points="1436.789,-119.0903 1433.2889,-109.0904 1429.789,-119.0904 1436.789,-119.0903"/>
</g>
<!-- first_parlament&#45;&gt;federation -->
<g id="edge18" class="edge">
<title>first_parlament&#45;&gt;federation</title>
<path fill="none" stroke="#000000" d="M940.0791,-323.5867C880.1468,-308.155 777.8941,-281.8265 713.3264,-265.2013"/>
<polygon fill="#000000" stroke="#000000" points="713.8564,-261.7236 703.2995,-262.6195 712.1108,-268.5025 713.8564,-261.7236"/>
</g>
<!-- first_parlament&#45;&gt;bureau -->
<g id="edge48" class="edge">
<title>first_parlament&#45;&gt;bureau</title>
<path fill="none" stroke="#000000" d="M1003.6751,-318.1164C1021.7525,-297.2203 1052.7758,-261.7182 1080.2889,-232 1093.7412,-217.4695 1095.6993,-212.2091 1111.2889,-200 1133.359,-182.7156 1302.5413,-81.391 1329.2889,-73 1432.7424,-40.5455 1735.4532,-26.4095 1900.6348,-20.9696"/>
<polygon fill="#000000" stroke="#000000" points="1900.9448,-24.4615 1910.8262,-20.6393 1900.718,-17.4652 1900.9448,-24.4615"/>
</g>
<!-- second_parlament&#45;&gt;bureau -->
<g id="edge49" class="edge">
<title>second_parlament&#45;&gt;bureau</title>
<path fill="none" stroke="#000000" d="M1512.1435,-81.0409C1617.9982,-67.6717 1805.7334,-43.9612 1918.3388,-29.7394"/>
<polygon fill="#000000" stroke="#000000" points="1918.8422,-33.2037 1928.3248,-28.4782 1917.9651,-26.2588 1918.8422,-33.2037"/>
</g>
<!-- conservatory&#45;&gt;foundation -->
<g id="edge22" class="edge">
<title>conservatory&#45;&gt;foundation</title>
<path fill="none" stroke="#000000" d="M2136.1011,-490.0551C2158.8312,-455.8733 2201.6305,-379.3612 2177.2889,-318 2155.1628,-262.2239 2102.2084,-214.9093 2066.7943,-187.978"/>
<polygon fill="#000000" stroke="#000000" points="2068.7496,-185.0701 2058.6401,-181.9 2064.5662,-190.6825 2068.7496,-185.0701"/>
</g>
<!-- museum -->
<g id="node15" class="node">
<title>museum</title>
<ellipse fill="none" stroke="#000000" cx="1688.2889" cy="-422" rx="61.7524" ry="18"/>
<text text-anchor="middle" x="1688.2889" y="-417.8" font-family="Times,serif" font-size="14.00" fill="#000000">Time Museum</text>
</g>
<!-- conservatory&#45;&gt;museum -->
<g id="edge23" class="edge">
<title>conservatory&#45;&gt;museum</title>
<path fill="none" stroke="#000000" d="M2063.7161,-496.2224C1981.0969,-479.8885 1832.5156,-450.5138 1749.194,-434.041"/>
<polygon fill="#000000" stroke="#000000" points="1749.8541,-430.6038 1739.3652,-432.0978 1748.4964,-437.4709 1749.8541,-430.6038"/>
</g>
<!-- library -->
<g id="node16" class="node">
<title>library</title>
<ellipse fill="none" stroke="#000000" cx="1544.2889" cy="-422" rx="57.3834" ry="18"/>
<text text-anchor="middle" x="1544.2889" y="-417.8" font-family="Times,serif" font-size="14.00" fill="#000000">Time Library</text>
</g>
<!-- conservatory&#45;&gt;library -->
<g id="edge24" class="edge">
<title>conservatory&#45;&gt;library</title>
<path fill="none" stroke="#000000" d="M2046.316,-504.5765C1936.7045,-499.236 1741.2794,-487.8647 1672.2889,-472 1642.1157,-465.0615 1609.6409,-452.3089 1584.9517,-441.4198"/>
<polygon fill="#000000" stroke="#000000" points="1586.1111,-438.1038 1575.5549,-437.1999 1583.2435,-444.4895 1586.1111,-438.1038"/>
</g>
<!-- conservatory&#45;&gt;travel -->
<g id="edge14" class="edge">
<title>conservatory&#45;&gt;travel</title>
<path fill="none" stroke="#000000" d="M2121.2193,-489.7073C2117.9781,-463.354 2110.8512,-413.3301 2099.2889,-372 2098.5098,-369.215 2097.5958,-366.3467 2096.6147,-363.5022"/>
<polygon fill="#000000" stroke="#000000" points="2099.8781,-362.2361 2093.1177,-354.0785 2093.3154,-364.6715 2099.8781,-362.2361"/>
</g>
<!-- museum_acquisitions -->
<g id="node17" class="node">
<title>museum_acquisitions</title>
<ellipse fill="none" stroke="#000000" cx="1688.2889" cy="-336" rx="143.8574" ry="18"/>
<text text-anchor="middle" x="1688.2889" y="-331.8" font-family="Times,serif" font-size="14.00" fill="#000000">Department of Temporal Acquisitions</text>
</g>
<!-- museum&#45;&gt;museum_acquisitions -->
<g id="edge25" class="edge">
<title>museum&#45;&gt;museum_acquisitions</title>
<path fill="none" stroke="#000000" d="M1688.2889,-403.7616C1688.2889,-392.3597 1688.2889,-377.4342 1688.2889,-364.494"/>
<polygon fill="#000000" stroke="#000000" points="1691.789,-364.2121 1688.2889,-354.2121 1684.789,-364.2121 1691.789,-364.2121"/>
</g>
<!-- museum&#45;&gt;university -->
<g id="edge29" class="edge">
<title>museum&#45;&gt;university</title>
<path fill="none" stroke="#000000" d="M1640.0875,-410.5706C1630.2439,-408.3227 1619.9445,-406.0329 1610.2889,-404 1535.9104,-388.3403 1517.1576,-385.1169 1442.2889,-372 1390.233,-362.8799 1331.234,-353.4746 1286.7148,-346.5655"/>
<polygon fill="#000000" stroke="#000000" points="1287.0028,-343.0685 1276.5851,-344.9977 1285.9321,-349.9861 1287.0028,-343.0685"/>
</g>
<!-- museum&#45;&gt;purity -->
<g id="edge71" class="edge">
<title>museum&#45;&gt;purity</title>
<path fill="none" stroke="#000000" stroke-dasharray="1,5" d="M1642.416,-409.765C1597.3062,-397.2956 1526.7599,-376.6184 1467.2889,-354 1381.2825,-321.2895 1354.1782,-320.9997 1278.9578,-268 1217.123,-224.4317 1224.6585,-185.7277 1160.2889,-146 1136.4856,-131.3091 1127.7135,-132.5052 1100.2889,-127 992.8366,-105.4301 866.5822,-96.7778 784.8657,-93.311"/>
<polygon fill="none" stroke="#000000" points="774.4672,-96.8907 774.7929,-88.8973 782.7863,-89.223 782.4606,-97.2164 774.4672,-96.8907"/>
<polyline fill="none" stroke="#000000" points="782.6235,-93.2197 784.6218,-93.3012 "/>
<text text-anchor="middle" x="1297.9544" y="-245.8" font-family="Times,serif" font-size="14.00" fill="#000000">hostile</text>
</g>
<!-- library&#45;&gt;foundation -->
<g id="edge27" class="edge">
<title>library&#45;&gt;foundation</title>
<path fill="none" stroke="#000000" d="M1587.664,-410.0374C1597.3518,-407.721 1607.6207,-405.5389 1617.2889,-404 1670.7637,-395.4884 1814.3996,-414.7432 1860.2889,-386 1903.8316,-358.7266 1887.6654,-327.2554 1918.2889,-286 1945.1048,-249.8741 1981.3069,-212.7101 2005.6579,-189.045"/>
<polygon fill="#000000" stroke="#000000" points="2008.3481,-191.3133 2013.1207,-181.8543 2003.4911,-186.2725 2008.3481,-191.3133"/>
</g>
<!-- library_special -->
<g id="node18" class="node">
<title>library_special</title>
<ellipse fill="none" stroke="#000000" cx="1617.2889" cy="-250" rx="138.606" ry="18"/>
<text text-anchor="middle" x="1617.2889" y="-245.8" font-family="Times,serif" font-size="14.00" fill="#000000">Library Special Operations Division</text>
</g>
<!-- library&#45;&gt;library_special -->
<g id="edge26" class="edge">
<title>library&#45;&gt;library_special</title>
<path fill="none" stroke="#000000" d="M1537.4886,-404.1159C1530.4552,-382.5969 1522.1875,-345.8847 1535.2889,-318 1543.849,-299.7809 1559.9532,-284.7619 1575.6391,-273.5152"/>
<polygon fill="#000000" stroke="#000000" points="1577.9548,-276.1734 1584.2599,-267.6589 1574.0213,-270.3831 1577.9548,-276.1734"/>
</g>
<!-- library&#45;&gt;university -->
<g id="edge28" class="edge">
<title>library&#45;&gt;university</title>
<path fill="none" stroke="#000000" d="M1509.3356,-407.581C1481.7333,-396.6247 1442.0431,-381.815 1406.2889,-372 1367.2773,-361.2908 1322.876,-352.657 1286.9163,-346.5318"/>
<polygon fill="#000000" stroke="#000000" points="1287.4502,-343.0726 1277.0091,-344.8711 1286.2929,-349.9763 1287.4502,-343.0726"/>
</g>
<!-- library&#45;&gt;purity -->
<g id="edge72" class="edge">
<title>library&#45;&gt;purity</title>
<path fill="none" stroke="#000000" stroke-dasharray="1,5" d="M1503.4755,-409.2699C1496.4519,-407.3328 1489.1917,-405.4874 1482.2889,-404 1407.2042,-387.8214 1190.8811,-411.7917 1140.2889,-354 1079.3908,-284.4358 1198.9541,-214.8851 1137.2889,-146 1114.1307,-120.1304 904.2775,-103.3257 783.6506,-95.7153"/>
<polygon fill="none" stroke="#000000" points="773.089,-99.0656 773.5861,-91.081 781.5707,-91.5781 781.0736,-99.5627 773.089,-99.0656"/>
<polyline fill="none" stroke="#000000" points="781.3221,-95.5704 783.3183,-95.6947 "/>
<text text-anchor="middle" x="1164.9544" y="-245.8" font-family="Times,serif" font-size="14.00" fill="#000000">hostile</text>
</g>
<!-- museum_acquisitions&#45;&gt;library_special -->
<g id="edge70" class="edge">
<title>museum_acquisitions&#45;&gt;library_special</title>
<path fill="none" stroke="#000000" stroke-dasharray="1,5" d="M1673.2316,-317.7616C1663.1862,-305.5939 1649.8279,-289.4134 1638.684,-275.9152"/>
<polygon fill="none" stroke="#000000" points="1628.9964,-270.4638 1635.1656,-265.3706 1640.2588,-271.5398 1634.0896,-276.6331 1628.9964,-270.4638"/>
<polyline fill="none" stroke="#000000" points="1637.1742,-274.0864 1638.4475,-275.6288 "/>
<text text-anchor="middle" x="1691.5062" y="-288.8" font-family="Times,serif" font-size="14.00" fill="#000000">semi&#45;hostile</text>
</g>
<!-- museum_acquisitions&#45;&gt;smugglers -->
<g id="edge33" class="edge">
<title>museum_acquisitions&#45;&gt;smugglers</title>
<path fill="none" stroke="#000000" d="M1738.6031,-319.1245C1761.6216,-308.4562 1786.3813,-292.0425 1798.2889,-268 1811.7022,-240.9174 1806.7647,-229.0094 1798.2889,-200 1797.4023,-196.9655 1796.1733,-193.9435 1794.7405,-191.0139"/>
<polygon fill="#000000" stroke="#000000" points="1797.6335,-189.0216 1789.6392,-182.0688 1791.5528,-192.4894 1797.6335,-189.0216"/>
</g>
<!-- library_special&#45;&gt;second_foundation -->
<g id="edge32" class="edge">
<title>library_special&#45;&gt;second_foundation</title>
<path fill="none" stroke="#000000" d="M1580.0537,-232.5966C1550.7427,-218.8969 1509.771,-199.7471 1478.5641,-185.1612"/>
<polygon fill="#000000" stroke="#000000" points="1479.7577,-181.8558 1469.2164,-180.7922 1476.7937,-188.1973 1479.7577,-181.8558"/>
</g>
<!-- library_special&#45;&gt;torture -->
<g id="edge38" class="edge">
<title>library_special&#45;&gt;torture</title>
<path fill="none" stroke="#000000" d="M1609.6933,-231.7077C1598.4038,-207.1812 1574.6552,-164.5759 1539.2889,-146 1448.226,-98.1699 717.0179,-114.1881 614.2889,-109 565.2506,-106.5234 511.6538,-103.3832 463.7584,-100.4216"/>
<polygon fill="#000000" stroke="#000000" points="463.826,-96.9192 453.6283,-99.7927 463.3922,-103.9057 463.826,-96.9192"/>
</g>
<!-- library_special&#45;&gt;private -->
<g id="edge39" class="edge">
<title>library_special&#45;&gt;private</title>
<path fill="none" stroke="#000000" d="M1520.1306,-237.1325C1503.5231,-235.2113 1486.4259,-233.4068 1470.2889,-232 1198.0621,-208.2683 1129.3307,-210.8999 856.2889,-200 567.9632,-188.49 494.8205,-206.2853 207.2889,-182 190.4089,-180.5743 172.3469,-178.4065 155.2957,-176.0636"/>
<polygon fill="#000000" stroke="#000000" points="155.7801,-172.5973 145.3896,-174.6681 154.8036,-179.5289 155.7801,-172.5973"/>
</g>
<!-- library_special&#45;&gt;smugglers -->
<g id="edge34" class="edge">
<title>library_special&#45;&gt;smugglers</title>
<path fill="none" stroke="#000000" d="M1649.6438,-232.3891C1674.2759,-218.9817 1708.334,-200.4438 1734.7779,-186.0503"/>
<polygon fill="#000000" stroke="#000000" points="1736.676,-189.0021 1743.786,-181.1472 1733.3295,-182.8538 1736.676,-189.0021"/>
</g>
<!-- commune&#45;&gt;second_foundation -->
<g id="edge31" class="edge">
<title>commune&#45;&gt;second_foundation</title>
<path fill="none" stroke="#000000" d="M1401.7718,-231.7616C1407.2342,-220.0176 1414.4352,-204.5355 1420.575,-191.3349"/>
<polygon fill="#000000" stroke="#000000" points="1423.7743,-192.7554 1424.8181,-182.2121 1417.4272,-189.8032 1423.7743,-192.7554"/>
</g>
<!-- private&#45;&gt;torture -->
<g id="edge37" class="edge">
<title>private&#45;&gt;torture</title>
<path fill="none" stroke="#000000" d="M117.841,-147.9076C134.8832,-140.9458 155.4104,-133.0301 174.2889,-127 194.5524,-120.5275 216.714,-114.5074 237.4779,-109.3141"/>
<polygon fill="#000000" stroke="#000000" points="238.3538,-112.703 247.2249,-106.9104 236.6777,-105.9066 238.3538,-112.703"/>
</g>
<!-- hanse&#45;&gt;museum_acquisitions -->
<g id="edge46" class="edge">
<title>hanse&#45;&gt;museum_acquisitions</title>
<path fill="none" stroke="#000000" d="M1889.6397,-404.0816C1882.2121,-393.1486 1871.3153,-379.8157 1858.2889,-372 1845.8544,-364.5395 1818.7863,-357.6056 1789.8283,-351.8548"/>
<polygon fill="#000000" stroke="#000000" points="1790.4355,-348.4075 1779.9537,-349.9509 1789.1102,-355.2809 1790.4355,-348.4075"/>
</g>
<!-- hanse&#45;&gt;travel -->
<g id="edge44" class="edge">
<title>hanse&#45;&gt;travel</title>
<path fill="none" stroke="#000000" d="M1932.6977,-407.549C1947.0313,-401.076 1964.0565,-393.2759 1979.2889,-386 1991.8435,-380.0032 1994.7488,-378.0271 2007.2889,-372 2017.8937,-366.9031 2029.3698,-361.5288 2040.1731,-356.532"/>
<polygon fill="#000000" stroke="#000000" points="2041.8377,-359.6188 2049.4549,-352.2547 2038.9079,-353.2613 2041.8377,-359.6188"/>
</g>
<!-- hanse&#45;&gt;bureau -->
<g id="edge47" class="edge">
<title>hanse&#45;&gt;bureau</title>
<path fill="none" stroke="#000000" d="M1914.0192,-404.3398C1931.2749,-382.7192 1962.3896,-345.5822 1993.2889,-318 2071.3013,-248.3625 2137.255,-274.8873 2185.2889,-182 2208.0312,-138.0211 2196.5185,-108.7727 2162.2889,-73 2144.2388,-54.1362 2119.2082,-41.7143 2094.7123,-33.5453"/>
<polygon fill="#000000" stroke="#000000" points="2095.592,-30.1533 2085.0032,-30.5118 2093.5044,-36.8348 2095.592,-30.1533"/>
</g>
<!-- hanse&#45;&gt;smugglers -->
<g id="edge45" class="edge">
<title>hanse&#45;&gt;smugglers</title>
<path fill="none" stroke="#000000" d="M1907.5581,-403.9725C1909.4951,-398.3148 1911.318,-391.9828 1912.2889,-386 1925.8041,-302.7152 1935.9237,-257.6208 1874.2889,-200 1866.2595,-192.4935 1856.5436,-186.5274 1846.3756,-181.7922"/>
<polygon fill="#000000" stroke="#000000" points="1847.5181,-178.4747 1836.946,-177.7806 1844.7778,-184.9161 1847.5181,-178.4747"/>
</g>
<!-- university&#45;&gt;commune -->
<g id="edge30" class="edge">
<title>university&#45;&gt;commune</title>
<path fill="none" stroke="#000000" d="M1249.9807,-320.0256C1278.6294,-306.0268 1320.43,-285.6015 1351.5005,-270.4193"/>
<polygon fill="#000000" stroke="#000000" points="1353.324,-273.4238 1360.7722,-265.8888 1350.2508,-267.1345 1353.324,-273.4238"/>
</g>
<!-- university&#45;&gt;posthuman -->
<g id="edge35" class="edge">
<title>university&#45;&gt;posthuman</title>
<path fill="none" stroke="#000000" d="M1212.2538,-317.9745C1204.9284,-294.9267 1189.1859,-255.2294 1162.2889,-232 1134.6421,-208.1231 1098.0438,-192.4435 1064.22,-182.2334"/>
<polygon fill="#000000" stroke="#000000" points="1064.8744,-178.7794 1054.2959,-179.3671 1062.932,-185.5045 1064.8744,-178.7794"/>
</g>
<!-- squads&#45;&gt;purity -->
<g id="edge10" class="edge">
<title>squads&#45;&gt;purity</title>
<path fill="none" stroke="#000000" d="M699.2889,-145.9551C699.2889,-137.8828 699.2889,-128.1764 699.2889,-119.1817"/>
<polygon fill="#000000" stroke="#000000" points="702.789,-119.0903 699.2889,-109.0904 695.789,-119.0904 702.789,-119.0903"/>
</g>
<!-- admin -->
<g id="node33" class="node">
<title>admin</title>
<ellipse fill="none" stroke="#000000" cx="1606.2889" cy="-508" rx="125.6197" ry="18"/>
<text text-anchor="middle" x="1606.2889" y="-503.8" font-family="Times,serif" font-size="14.00" fill="#000000">Most Benevolent Administrators</text>
</g>
<!-- admin&#45;&gt;museum -->
<g id="edge74" class="edge">
<title>admin&#45;&gt;museum</title>
<path fill="none" stroke="#000000" stroke-dasharray="1,5" d="M1623.679,-489.7616C1635.579,-477.2811 1651.5043,-460.5789 1664.5664,-446.8797"/>
<polygon fill="none" stroke="#000000" points="1668.5897,-436.8636 1674.3797,-442.3842 1668.859,-448.1741 1663.0691,-442.6535 1668.5897,-436.8636"/>
<polyline fill="none" stroke="#000000" points="1665.9641,-445.4138 1664.5839,-446.8613 "/>
<text text-anchor="middle" x="1670.9544" y="-460.8" font-family="Times,serif" font-size="14.00" fill="#000000">hostile</text>
</g>
<!-- admin&#45;&gt;library -->
<g id="edge76" class="edge">
<title>admin&#45;&gt;library</title>
<path fill="none" stroke="#000000" stroke-dasharray="1,5" d="M1593.1403,-489.7616C1584.3926,-477.6278 1572.7682,-461.5035 1563.0533,-448.0281"/>
<polygon fill="none" stroke="#000000" points="1553.7498,-441.9631 1560.2392,-437.2847 1564.9176,-443.7741 1558.4282,-448.4526 1553.7498,-441.9631"/>
<polyline fill="none" stroke="#000000" points="1561.6729,-446.1133 1562.8425,-447.7357 "/>
<text text-anchor="middle" x="1597.9544" y="-460.8" font-family="Times,serif" font-size="14.00" fill="#000000">hostile</text>
</g>
<!-- admin&#45;&gt;university -->
<g id="edge75" class="edge">
<title>admin&#45;&gt;university</title>
<path fill="none" stroke="#000000" stroke-dasharray="1,5" d="M1563.5918,-491.0533C1530.0756,-477.6028 1482.3238,-458.1129 1440.9578,-440 1377.0506,-412.0169 1303.9013,-377.5321 1259.1535,-356.153"/>
<polygon fill="none" stroke="#000000" points="1248.323,-355.4051 1251.776,-348.1887 1258.9924,-351.6416 1255.5395,-358.8581 1248.323,-355.4051"/>
<polyline fill="none" stroke="#000000" points="1257.266,-355.2499 1259.0701,-356.1131 "/>
<text text-anchor="middle" x="1459.9544" y="-417.8" font-family="Times,serif" font-size="14.00" fill="#000000">hostile</text>
</g>
<!-- admin&#45;&gt;admin -->
<g id="edge73" class="edge">
<title>admin&#45;&gt;admin</title>
<path fill="none" stroke="#000000" stroke-dasharray="1,5" d="M1725.1082,-513.8782C1740.0292,-512.8422 1749.8487,-510.8828 1749.8487,-508 1749.8487,-505.8379 1744.3252,-504.1952 1735.2687,-503.0719"/>
<polygon fill="none" stroke="#000000" points="1724.7357,-506.1044 1725.4806,-498.1391 1733.4459,-498.8841 1732.7009,-506.8493 1724.7357,-506.1044"/>
<polyline fill="none" stroke="#000000" points="1733.0734,-502.8667 1735.0647,-503.0529 "/>
<text text-anchor="middle" x="1768.5142" y="-503.8" font-family="Times,serif" font-size="14.00" fill="#000000">hostile</text>
</g>
<!-- Space Fleet&#45;&gt;fleet -->
<g id="edge4" class="edge">
<title>Space Fleet&#45;&gt;fleet</title>
<path fill="none" stroke="#000000" d="M1390.2889,-635.9551C1390.2889,-627.8828 1390.2889,-618.1764 1390.2889,-609.1817"/>
<polygon fill="#000000" stroke="#000000" points="1393.789,-609.0903 1390.2889,-599.0904 1386.789,-609.0904 1393.789,-609.0903"/>
</g>
</g>
</svg>
