<?xml version="1.0" encoding="UTF-8" standalone="no"?>
<!DOCTYPE svg PUBLIC "-//W3C//DTD SVG 1.1//EN"
 "http://www.w3.org/Graphics/SVG/1.1/DTD/svg11.dtd">
<!-- Generated by graphviz version 2.40.1 (20161225.0304)
 -->
<!-- Title: begets Pages: 1 -->
<svg width="2471pt" height="753pt"
 viewBox="0.00 0.00 2471.18 753.00" xmlns="http://www.w3.org/2000/svg" xmlns:xlink="http://www.w3.org/1999/xlink">
<g id="graph0" class="graph" transform="scale(1 1) rotate(0) translate(4 749)">
<title>begets</title>
<polygon fill="#ffffff" stroke="transparent" points="-4,4 -4,-749 2467.1751,-749 2467.1751,4 -4,4"/>
<!-- unknown_1 -->
<g id="node1" class="node">
<title>unknown_1</title>
<ellipse fill="none" stroke="#000000" cx="1055.775" cy="-727" rx="27" ry="18"/>
<text text-anchor="middle" x="1055.775" y="-722.8" font-family="Times,serif" font-size="14.00" fill="#000000">?</text>
</g>
<!-- Space Fleet -->
<g id="node32" class="node">
<title>Space Fleet</title>
<ellipse fill="none" stroke="#000000" cx="1055.775" cy="-654" rx="51.2319" ry="18"/>
<text text-anchor="middle" x="1055.775" y="-649.8" font-family="Times,serif" font-size="14.00" fill="#000000">Space Fleet</text>
</g>
<!-- unknown_1&#45;&gt;Space Fleet -->
<g id="edge3" class="edge">
<title>unknown_1&#45;&gt;Space Fleet</title>
<path fill="none" stroke="#000000" d="M1055.775,-708.9551C1055.775,-700.8828 1055.775,-691.1764 1055.775,-682.1817"/>
<polygon fill="#000000" stroke="#000000" points="1059.2751,-682.0903 1055.775,-672.0904 1052.2751,-682.0904 1059.2751,-682.0903"/>
</g>
<!-- unknown_2 -->
<g id="node2" class="node">
<title>unknown_2</title>
<ellipse fill="none" stroke="#000000" cx="1190.775" cy="-727" rx="27" ry="18"/>
<text text-anchor="middle" x="1190.775" y="-722.8" font-family="Times,serif" font-size="14.00" fill="#000000">?</text>
</g>
<!-- hierarchy -->
<g id="node18" class="node">
<title>hierarchy</title>
<ellipse fill="none" stroke="#000000" cx="1190.775" cy="-654" rx="66.0524" ry="18"/>
<text text-anchor="middle" x="1190.775" y="-649.8" font-family="Times,serif" font-size="14.00" fill="#000000">Time Hierarchy</text>
</g>
<!-- unknown_2&#45;&gt;hierarchy -->
<g id="edge6" class="edge">
<title>unknown_2&#45;&gt;hierarchy</title>
<path fill="none" stroke="#000000" d="M1190.775,-708.9551C1190.775,-700.8828 1190.775,-691.1764 1190.775,-682.1817"/>
<polygon fill="#000000" stroke="#000000" points="1194.2751,-682.0903 1190.775,-672.0904 1187.2751,-682.0904 1194.2751,-682.0903"/>
</g>
<!-- unknown_3 -->
<g id="node3" class="node">
<title>unknown_3</title>
<ellipse fill="none" stroke="#000000" cx="1832.775" cy="-250" rx="27" ry="18"/>
<text text-anchor="middle" x="1832.775" y="-245.8" font-family="Times,serif" font-size="14.00" fill="#000000">?</text>
</g>
<!-- posthuman -->
<g id="node27" class="node">
<title>posthuman</title>
<ellipse fill="none" stroke="#000000" cx="1887.775" cy="-164" rx="158.4361" ry="18"/>
<text text-anchor="middle" x="1887.775" y="-159.8" font-family="Times,serif" font-size="14.00" fill="#000000">Posthumanism Propagation Movemement</text>
</g>
<!-- unknown_3&#45;&gt;posthuman -->
<g id="edge7" class="edge">
<title>unknown_3&#45;&gt;posthuman</title>
<path fill="none" stroke="#000000" d="M1843.3796,-233.4183C1851.1127,-221.3265 1861.7561,-204.6841 1870.6831,-190.7256"/>
<polygon fill="#000000" stroke="#000000" points="1873.8144,-192.3256 1876.2536,-182.0153 1867.9172,-188.5541 1873.8144,-192.3256"/>
</g>
<!-- the_agency -->
<g id="node4" class="node">
<title>the_agency</title>
<polygon fill="none" stroke="#000000" points="952.3379,-672 671.2122,-672 671.2122,-636 952.3379,-636 952.3379,-672"/>
<text text-anchor="middle" x="811.775" y="-649.8" font-family="Times,serif" font-size="14.00" fill="#000000">Agency for the Preservation of Time and Space</text>
</g>
<!-- fleet -->
<g id="node6" class="node">
<title>fleet</title>
<ellipse fill="none" stroke="#000000" cx="1055.775" cy="-581" rx="72.3341" ry="18"/>
<text text-anchor="middle" x="1055.775" y="-576.8" font-family="Times,serif" font-size="14.00" fill="#000000">Space&#45;Time Fleet</text>
</g>
<!-- the_agency&#45;&gt;fleet -->
<g id="edge1" class="edge">
<title>the_agency&#45;&gt;fleet</title>
<path fill="none" stroke="#000000" d="M872.0896,-635.9551C910.9538,-624.3277 961.1515,-609.3095 999.247,-597.9121"/>
<polygon fill="#000000" stroke="#000000" points="1000.576,-601.1678 1009.1532,-594.9483 998.5695,-594.4615 1000.576,-601.1678"/>
</g>
<!-- conservatory -->
<g id="node13" class="node">
<title>conservatory</title>
<ellipse fill="none" stroke="#000000" cx="667.775" cy="-508" rx="78.1401" ry="18"/>
<text text-anchor="middle" x="667.775" y="-503.8" font-family="Times,serif" font-size="14.00" fill="#000000">Time Conservatory</text>
</g>
<!-- the_agency&#45;&gt;conservatory -->
<g id="edge2" class="edge">
<title>the_agency&#45;&gt;conservatory</title>
<path fill="none" stroke="#000000" d="M782.6634,-635.8812C774.9056,-630.5184 766.7489,-624.3666 759.775,-618 731.4454,-592.1373 703.8906,-557.5595 686.4403,-534.1259"/>
<polygon fill="#000000" stroke="#000000" points="689.2314,-532.0136 680.4856,-526.0335 683.5933,-536.1624 689.2314,-532.0136"/>
</g>
<!-- private -->
<g id="node23" class="node">
<title>private</title>
<ellipse fill="none" stroke="#000000" cx="1026.775" cy="-164" rx="80.0783" ry="18"/>
<text text-anchor="middle" x="1026.775" y="-159.8" font-family="Times,serif" font-size="14.00" fill="#000000">Time Investigations</text>
</g>
<!-- the_agency&#45;&gt;private -->
<g id="edge40" class="edge">
<title>the_agency&#45;&gt;private</title>
<path fill="none" stroke="#000000" d="M812.3972,-635.9962C814.5713,-590.0212 824.1721,-465.336 865.775,-372 899.0129,-297.4309 964.3495,-225.5693 1000.7401,-189.0026"/>
<polygon fill="#000000" stroke="#000000" points="1003.4162,-191.2777 1008.0442,-181.7471 998.4829,-186.3114 1003.4162,-191.2777"/>
</g>
<!-- bureau -->
<g id="node24" class="node">
<title>bureau</title>
<ellipse fill="none" stroke="#000000" cx="2361.775" cy="-18" rx="101.3002" ry="18"/>
<text text-anchor="middle" x="2361.775" y="-13.8" font-family="Times,serif" font-size="14.00" fill="#000000">Time &amp; Measures Bureau</text>
</g>
<!-- the_agency&#45;&gt;bureau -->
<g id="edge41" class="edge">
<title>the_agency&#45;&gt;bureau</title>
<path fill="none" stroke="#000000" d="M952.3475,-639.3724C967.0021,-638.1096 981.6845,-636.9527 995.775,-636 1036.4331,-633.2511 2461.775,-621.7509 2461.775,-581 2461.775,-581 2461.775,-581 2461.775,-91 2461.775,-66.7238 2442.3119,-49.6594 2420.5588,-38.1685"/>
<polygon fill="#000000" stroke="#000000" points="2422.0033,-34.9788 2411.4821,-33.732 2418.9294,-41.2678 2422.0033,-34.9788"/>
</g>
<!-- hanse -->
<g id="node25" class="node">
<title>hanse</title>
<ellipse fill="none" stroke="#000000" cx="1136.775" cy="-422" rx="52.5489" ry="18"/>
<text text-anchor="middle" x="1136.775" y="-417.8" font-family="Times,serif" font-size="14.00" fill="#000000">Time Hanse</text>
</g>
<!-- the_agency&#45;&gt;hanse -->
<g id="edge43" class="edge">
<title>the_agency&#45;&gt;hanse</title>
<path fill="none" stroke="#000000" d="M837.0068,-635.9884C895.6926,-594.0958 1041.2327,-490.2026 1105.4622,-444.3525"/>
<polygon fill="#000000" stroke="#000000" points="1107.8626,-446.9393 1113.9681,-438.2806 1103.7955,-441.242 1107.8626,-446.9393"/>
</g>
<!-- brigade -->
<g id="node5" class="node">
<title>brigade</title>
<ellipse fill="none" stroke="#000000" cx="1630.775" cy="-508" rx="58.8368" ry="18"/>
<text text-anchor="middle" x="1630.775" y="-503.8" font-family="Times,serif" font-size="14.00" fill="#000000">Time Brigade</text>
</g>
<!-- federation -->
<g id="node7" class="node">
<title>federation</title>
<ellipse fill="none" stroke="#000000" cx="1673.775" cy="-250" rx="68.4837" ry="18"/>
<text text-anchor="middle" x="1673.775" y="-245.8" font-family="Times,serif" font-size="14.00" fill="#000000">Time Federation</text>
</g>
<!-- brigade&#45;&gt;federation -->
<g id="edge51" class="edge">
<title>brigade&#45;&gt;federation</title>
<path fill="none" stroke="#000000" stroke-dasharray="1,5" d="M1638.7681,-489.9655C1641.0083,-484.3076 1643.2463,-477.9771 1644.775,-472 1662.2291,-403.7563 1669.5043,-320.8813 1672.2652,-278.2896"/>
<polygon fill="none" stroke="#000000" points="1668.8948,-267.8746 1676.8799,-268.3631 1676.3914,-276.3482 1668.4063,-275.8597 1668.8948,-267.8746"/>
<polyline fill="none" stroke="#000000" points="1672.3988,-276.1039 1672.2767,-278.1002 "/>
<text text-anchor="middle" x="1681.4405" y="-374.8" font-family="Times,serif" font-size="14.00" fill="#000000">hostile</text>
</g>
<!-- babylon -->
<g id="node8" class="node">
<title>babylon</title>
<ellipse fill="none" stroke="#000000" cx="2366.775" cy="-422" rx="67.1696" ry="18"/>
<text text-anchor="middle" x="2366.775" y="-417.8" font-family="Times,serif" font-size="14.00" fill="#000000">Babylon Project</text>
</g>
<!-- brigade&#45;&gt;babylon -->
<g id="edge50" class="edge">
<title>brigade&#45;&gt;babylon</title>
<path fill="none" stroke="#000000" stroke-dasharray="1,5" d="M1689.532,-507.4346C1824.26,-505.6857 2152.0461,-498.7325 2258.775,-472 2283.6296,-465.7746 2309.7469,-453.848 2330.0714,-443.2044"/>
<polygon fill="none" stroke="#000000" points="2337.0865,-434.9042 2340.8669,-441.9547 2333.8165,-445.7351 2330.0361,-438.6846 2337.0865,-434.9042"/>
<polyline fill="none" stroke="#000000" points="2331.9263,-442.2099 2330.1637,-443.155 "/>
<text text-anchor="middle" x="2317.4405" y="-460.8" font-family="Times,serif" font-size="14.00" fill="#000000">hostile</text>
</g>
<!-- first_parlament -->
<g id="node11" class="node">
<title>first_parlament</title>
<ellipse fill="none" stroke="#000000" cx="2293.775" cy="-336" rx="66.5542" ry="18"/>
<text text-anchor="middle" x="2293.775" y="-331.8" font-family="Times,serif" font-size="14.00" fill="#000000">Time Parlament</text>
</g>
<!-- brigade&#45;&gt;first_parlament -->
<g id="edge59" class="edge">
<title>brigade&#45;&gt;first_parlament</title>
<path fill="none" stroke="#000000" stroke-dasharray="1,5" d="M1689.6429,-507.4499C1828.6524,-505.7143 2168.9136,-498.7532 2212.775,-472 2215.6711,-470.2336 2262.3088,-390.2471 2283.4725,-353.783"/>
<text text-anchor="middle" x="2271.0406" y="-417.8" font-family="Times,serif" font-size="14.00" fill="#000000">rejects</text>
</g>
<!-- second_parlament -->
<g id="node12" class="node">
<title>second_parlament</title>
<ellipse fill="none" stroke="#000000" cx="2269.775" cy="-91" rx="94.7328" ry="18"/>
<text text-anchor="middle" x="2269.775" y="-86.8" font-family="Times,serif" font-size="14.00" fill="#000000">Second Time Parlament</text>
</g>
<!-- brigade&#45;&gt;second_parlament -->
<g id="edge60" class="edge">
<title>brigade&#45;&gt;second_parlament</title>
<path fill="none" stroke="#000000" stroke-dasharray="1,5" d="M1688.9884,-505.0943C1785.0458,-499.9213 1972.5158,-488.125 2036.775,-472 2071.9258,-463.1794 2083.1397,-462.2127 2111.775,-440 2165.5486,-398.2873 2261.4487,-248.3073 2276.775,-182 2282.5201,-157.1444 2278.2703,-127.5599 2274.325,-109.0255"/>
<text text-anchor="middle" x="2247.0406" y="-288.8" font-family="Times,serif" font-size="14.00" fill="#000000">rejects</text>
</g>
<!-- travel -->
<g id="node19" class="node">
<title>travel</title>
<ellipse fill="none" stroke="#000000" cx="1152.775" cy="-336" rx="82.534" ry="18"/>
<text text-anchor="middle" x="1152.775" y="-331.8" font-family="Times,serif" font-size="14.00" fill="#000000">Time Travel Agency</text>
</g>
<!-- brigade&#45;&gt;travel -->
<g id="edge57" class="edge">
<title>brigade&#45;&gt;travel</title>
<path fill="none" stroke="#000000" stroke-dasharray="1,5" d="M1577.3925,-500.2736C1542.5232,-494.4214 1496.2966,-485.128 1456.775,-472 1424.9107,-461.4155 1418.5571,-454.6396 1388.3405,-440 1327.6788,-410.6101 1314.7218,-398.5743 1252.775,-372 1238.3778,-365.8238 1222.5311,-359.7846 1207.7799,-354.4708"/>
<polygon fill="none" stroke="#000000" points="1196.9306,-354.8583 1199.6109,-347.3207 1207.1486,-350.001 1204.4682,-357.5386 1196.9306,-354.8583"/>
<polyline fill="none" stroke="#000000" points="1205.8084,-353.7698 1207.6928,-354.4399 "/>
<text text-anchor="middle" x="1421.9923" y="-417.8" font-family="Times,serif" font-size="14.00" fill="#000000">semi&#45;hostile</text>
</g>
<!-- commune -->
<g id="node21" class="node">
<title>commune</title>
<ellipse fill="none" stroke="#000000" cx="1481.775" cy="-250" rx="67.5405" ry="18"/>
<text text-anchor="middle" x="1481.775" y="-245.8" font-family="Times,serif" font-size="14.00" fill="#000000">Time Commune</text>
</g>
<!-- brigade&#45;&gt;commune -->
<g id="edge52" class="edge">
<title>brigade&#45;&gt;commune</title>
<path fill="none" stroke="#000000" stroke-dasharray="1,5" d="M1622.3422,-489.9896C1606.0595,-455.6973 1568.5525,-379.0065 1530.775,-318 1521.8741,-303.626 1510.9593,-288.2924 1501.6922,-275.8311"/>
<polygon fill="none" stroke="#000000" points="1492.3879,-270.1143 1498.7816,-265.3058 1503.59,-271.6995 1497.1963,-276.508 1492.3879,-270.1143"/>
<polyline fill="none" stroke="#000000" points="1500.3931,-274.1037 1501.5953,-275.7022 "/>
<text text-anchor="middle" x="1587.4405" y="-374.8" font-family="Times,serif" font-size="14.00" fill="#000000">hostile</text>
</g>
<!-- torture -->
<g id="node22" class="node">
<title>torture</title>
<ellipse fill="none" stroke="#000000" cx="1565.775" cy="-91" rx="153.7905" ry="18"/>
<text text-anchor="middle" x="1565.775" y="-86.8" font-family="Times,serif" font-size="14.00" fill="#000000">Time Will Tell Interrogation Department</text>
</g>
<!-- brigade&#45;&gt;torture -->
<g id="edge36" class="edge">
<title>brigade&#45;&gt;torture</title>
<path fill="none" stroke="#000000" d="M1689.0858,-505.9226C1796.765,-501.0221 2021.4276,-485.5008 2082.775,-440 2110.6974,-419.2902 2249.4799,-215.2049 2259.775,-182 2264.5133,-166.7177 2270.6326,-157.7521 2259.775,-146 2241.6867,-126.4214 1918.8938,-107.7055 1719.986,-97.9627"/>
<polygon fill="#000000" stroke="#000000" points="1719.8839,-94.4537 1709.7254,-97.4627 1719.5432,-101.4454 1719.8839,-94.4537"/>
</g>
<!-- brigade&#45;&gt;private -->
<g id="edge56" class="edge">
<title>brigade&#45;&gt;private</title>
<path fill="none" stroke="#000000" stroke-dasharray="1,5" d="M1609.5467,-491.0625C1575.9094,-463.7913 1508.9876,-407.7506 1458.3405,-354 1410.9171,-303.6708 1420.2259,-268.9527 1361.775,-232 1340.0177,-218.245 1193.8845,-191.9014 1101.9525,-176.35"/>
<polygon fill="none" stroke="#000000" points="1091.1868,-178.5922 1092.5163,-170.7034 1100.405,-172.0329 1099.0755,-179.9217 1091.1868,-178.5922"/>
<polyline fill="none" stroke="#000000" points="1099.7403,-175.9773 1101.7125,-176.3097 "/>
<text text-anchor="middle" x="1491.9923" y="-331.8" font-family="Times,serif" font-size="14.00" fill="#000000">semi&#45;hostile</text>
</g>
<!-- brigade&#45;&gt;hanse -->
<g id="edge58" class="edge">
<title>brigade&#45;&gt;hanse</title>
<path fill="none" stroke="#000000" stroke-dasharray="1,5" d="M1572.1221,-506.4827C1500.9915,-503.6347 1377.8339,-495.456 1274.9059,-472 1241.7968,-464.4549 1205.762,-451.2326 1178.8014,-440.2797"/>
<polygon fill="none" stroke="#000000" points="1170.6357,-433.1262 1178.546,-440.1744 1167.9669,-439.5975 1170.6357,-433.1262"/>
<text text-anchor="middle" x="1290.7096" y="-460.8" font-family="Times,serif" font-size="14.00" fill="#000000">treaty</text>
</g>
<!-- smugglers -->
<g id="node26" class="node">
<title>smugglers</title>
<ellipse fill="none" stroke="#000000" cx="832.775" cy="-164" rx="95.7278" ry="18"/>
<text text-anchor="middle" x="832.775" y="-159.8" font-family="Times,serif" font-size="14.00" fill="#000000">Honest Time Smugglers</text>
</g>
<!-- brigade&#45;&gt;smugglers -->
<g id="edge53" class="edge">
<title>brigade&#45;&gt;smugglers</title>
<path fill="none" stroke="#000000" stroke-dasharray="1,5" d="M1596.0722,-493.3346C1569.7531,-481.2527 1533.5013,-462.486 1505.775,-440 1474.9232,-414.9792 1480.9588,-393.8338 1447.775,-372 1425.1099,-357.0871 1414.6385,-364.0665 1389.444,-354 1361.1423,-342.692 1172.3333,-242.6433 1143.775,-232 1090.4418,-212.1235 1075.3028,-212.497 1019.775,-200 984.8443,-192.1385 946.0021,-184.4859 912.8091,-178.2723"/>
<polygon fill="none" stroke="#000000" points="901.9681,-180.324 903.4314,-172.459 911.2964,-173.9223 909.8331,-181.7873 901.9681,-180.324"/>
<polyline fill="none" stroke="#000000" points="910.5648,-177.8548 912.5311,-178.2207 "/>
<text text-anchor="middle" x="1407.4405" y="-331.8" font-family="Times,serif" font-size="14.00" fill="#000000">hostile</text>
</g>
<!-- brigade&#45;&gt;posthuman -->
<g id="edge55" class="edge">
<title>brigade&#45;&gt;posthuman</title>
<path fill="none" stroke="#000000" stroke-dasharray="1,5" d="M1684.9641,-501.0048C1760.365,-489.7297 1887.775,-464.4037 1887.775,-422 1887.775,-422 1887.775,-422 1887.775,-250 1887.775,-230.7711 1887.775,-209.1237 1887.775,-192.358"/>
<polygon fill="none" stroke="#000000" points="1883.775,-182.1199 1891.775,-182.1198 1891.7751,-190.1198 1883.7751,-190.1199 1883.775,-182.1199"/>
<polyline fill="none" stroke="#000000" points="1887.7751,-190.1199 1887.7751,-192.1199 "/>
<text text-anchor="middle" x="1906.4405" y="-331.8" font-family="Times,serif" font-size="14.00" fill="#000000">hostile</text>
</g>
<!-- university -->
<g id="node28" class="node">
<title>university</title>
<ellipse fill="none" stroke="#000000" cx="983.775" cy="-336" rx="68.0164" ry="18"/>
<text text-anchor="middle" x="983.775" y="-331.8" font-family="Times,serif" font-size="14.00" fill="#000000">Time University</text>
</g>
<!-- brigade&#45;&gt;university -->
<g id="edge54" class="edge">
<title>brigade&#45;&gt;university</title>
<path fill="none" stroke="#000000" stroke-dasharray="1,5" d="M1577.9152,-499.8663C1534.9345,-493.0505 1472.7839,-482.7348 1418.775,-472 1356.032,-459.5292 1339.0798,-460.3841 1278.444,-440 1241.6138,-427.6187 1235.0659,-417.8828 1198.775,-404 1146.0258,-383.8212 1084.4519,-364.7908 1040.7504,-352.0225"/>
<polygon fill="none" stroke="#000000" points="1029.7605,-352.9964 1031.9914,-345.3138 1039.6741,-347.5447 1037.4431,-355.2274 1029.7605,-352.9964"/>
<polyline fill="none" stroke="#000000" points="1038.5586,-351.3861 1040.4793,-351.9438 "/>
<text text-anchor="middle" x="1296.4405" y="-417.8" font-family="Times,serif" font-size="14.00" fill="#000000">hostile</text>
</g>
<!-- people -->
<g id="node29" class="node">
<title>people</title>
<ellipse fill="none" stroke="#000000" cx="2157.775" cy="-164" rx="93.0387" ry="18"/>
<text text-anchor="middle" x="2157.775" y="-159.8" font-family="Times,serif" font-size="14.00" fill="#000000">People&#39;s Time Brigades</text>
</g>
<!-- brigade&#45;&gt;people -->
<g id="edge8" class="edge">
<title>brigade&#45;&gt;people</title>
<path fill="none" stroke="#000000" d="M1687.3879,-502.9554C1807.6693,-491.4746 2077.775,-461.3161 2077.775,-422 2077.775,-422 2077.775,-422 2077.775,-250 2077.775,-223.654 2098.1515,-201.9961 2118.3371,-187.0048"/>
<polygon fill="#000000" stroke="#000000" points="2120.4422,-189.8034 2126.6159,-181.1932 2116.4202,-184.0741 2120.4422,-189.8034"/>
</g>
<!-- squads -->
<g id="node30" class="node">
<title>squads</title>
<ellipse fill="none" stroke="#000000" cx="1469.775" cy="-164" rx="94.57" ry="18"/>
<text text-anchor="middle" x="1469.775" y="-159.8" font-family="Times,serif" font-size="14.00" fill="#000000">Time Protection Squads</text>
</g>
<!-- brigade&#45;&gt;squads -->
<g id="edge9" class="edge">
<title>brigade&#45;&gt;squads</title>
<path fill="none" stroke="#000000" d="M1630.9023,-489.9922C1630.3167,-442.473 1622.6288,-311.8728 1558.775,-232 1549.5372,-220.4446 1542.7379,-222.7036 1530.775,-214 1519.7663,-205.9905 1508.1078,-196.6609 1497.9648,-188.2445"/>
<polygon fill="#000000" stroke="#000000" points="1500.1087,-185.4746 1490.1965,-181.7332 1495.612,-190.8394 1500.1087,-185.4746"/>
</g>
<!-- fleet&#45;&gt;brigade -->
<g id="edge5" class="edge">
<title>fleet&#45;&gt;brigade</title>
<path fill="none" stroke="#000000" d="M1120.3389,-572.8032C1231.0091,-558.7529 1455.6797,-530.2295 1566.2934,-516.1864"/>
<polygon fill="#000000" stroke="#000000" points="1566.8331,-519.646 1576.3126,-514.9144 1565.9514,-512.7018 1566.8331,-519.646"/>
</g>
<!-- fleet&#45;&gt;federation -->
<g id="edge11" class="edge">
<title>fleet&#45;&gt;federation</title>
<path fill="none" stroke="#000000" d="M1120.1055,-572.65C1158.2264,-566.5681 1201.9134,-557.253 1216.775,-545 1249.3309,-518.1586 1220.7845,-482.9999 1254.775,-458 1284.31,-436.2771 1384.6574,-453.4232 1418.775,-440 1515.5051,-401.9426 1607.8853,-317.0906 1649.9907,-274.8624"/>
<polygon fill="#000000" stroke="#000000" points="1652.7274,-277.072 1657.2573,-267.4944 1647.7434,-272.1566 1652.7274,-277.072"/>
</g>
<!-- fleet&#45;&gt;babylon -->
<g id="edge16" class="edge">
<title>fleet&#45;&gt;babylon</title>
<path fill="none" stroke="#000000" d="M1127.6992,-578.8562C1383.3189,-570.7004 2238.0921,-538.6449 2339.775,-472 2347.8082,-466.7349 2353.6363,-458.2428 2357.7747,-449.7397"/>
<polygon fill="#000000" stroke="#000000" points="2361.0923,-450.8801 2361.7566,-440.3061 2354.6433,-448.1579 2361.0923,-450.8801"/>
</g>
<!-- fleet&#45;&gt;travel -->
<g id="edge13" class="edge">
<title>fleet&#45;&gt;travel</title>
<path fill="none" stroke="#000000" d="M1053.5772,-562.9494C1050.3618,-529.4929 1047.426,-456.4864 1074.775,-404 1084.1611,-385.9868 1100.4708,-370.621 1115.7576,-359.0776"/>
<polygon fill="#000000" stroke="#000000" points="1118.0309,-361.7534 1124.0945,-353.0653 1113.9364,-356.0758 1118.0309,-361.7534"/>
</g>
<!-- tabloid -->
<g id="node20" class="node">
<title>tabloid</title>
<ellipse fill="none" stroke="#000000" cx="284.775" cy="-91" rx="55.4802" ry="18"/>
<text text-anchor="middle" x="284.775" y="-86.8" font-family="Times,serif" font-size="14.00" fill="#000000">Time Stories</text>
</g>
<!-- fleet&#45;&gt;tabloid -->
<g id="edge64" class="edge">
<title>fleet&#45;&gt;tabloid</title>
<path fill="none" stroke="#000000" stroke-dasharray="1,5" d="M1002.4978,-568.7599C974.981,-562.189 940.9379,-553.6722 910.775,-545 884.7055,-537.5046 878.399,-534.9003 852.775,-526 808.9425,-510.775 799.0998,-503.7259 754.775,-490 668.486,-463.2792 635.3134,-486.3423 557.775,-440 539.1439,-428.8648 543.3691,-415.1969 524.775,-404 497.6246,-387.6507 486.4318,-394.038 455.775,-386 401.7865,-371.8446 368.4691,-398.1629 334.3405,-354 277.8124,-280.852 366.7942,-232.3468 333.775,-146 329.3589,-134.4517 321.2898,-123.7817 312.9567,-114.9736"/>
<polygon fill="none" stroke="#000000" points="302.836,-110.5791 308.4658,-104.8953 314.1496,-110.5251 308.5198,-116.2089 302.836,-110.5791"/>
<polyline fill="none" stroke="#000000" points="311.3347,-113.367 312.7556,-114.7745 "/>
<text text-anchor="middle" x="368.9923" y="-331.8" font-family="Times,serif" font-size="14.00" fill="#000000">semi&#45;hostile</text>
</g>
<!-- fleet&#45;&gt;private -->
<g id="edge63" class="edge">
<title>fleet&#45;&gt;private</title>
<path fill="none" stroke="#000000" stroke-dasharray="1,5" d="M1074.1258,-563.4819C1101.6245,-537.1026 1154.9721,-485.4275 1198.775,-440 1213.8409,-424.3753 1212.9386,-414.7843 1231.775,-404 1299.0126,-365.5049 1354.938,-417.8833 1398.775,-354 1407.8279,-340.8074 1406.7694,-331.8596 1398.775,-318 1372.6079,-272.6348 1243.6443,-218.8283 1194.775,-200 1166.266,-189.0161 1133.677,-181.0587 1104.8363,-175.4642"/>
<polygon fill="none" stroke="#000000" points="1094.0668,-177.5143 1095.5415,-169.6514 1103.4044,-171.126 1101.9298,-178.989 1094.0668,-177.5143"/>
<polyline fill="none" stroke="#000000" points="1102.6671,-175.0575 1104.6328,-175.4261 "/>
<text text-anchor="middle" x="1415.9923" y="-374.8" font-family="Times,serif" font-size="14.00" fill="#000000">semi&#45;hostile</text>
</g>
<!-- fleet&#45;&gt;smugglers -->
<g id="edge61" class="edge">
<title>fleet&#45;&gt;smugglers</title>
<path fill="none" stroke="#000000" stroke-dasharray="1,5" d="M1002.6188,-568.6352C953.4,-555.5963 887.775,-533.4409 887.775,-508 887.775,-508 887.775,-508 887.775,-250 887.775,-227.0601 873.7144,-205.3321 859.8118,-189.455"/>
<polygon fill="none" stroke="#000000" points="849.698,-184.4297 855.5646,-178.9906 861.0037,-184.8572 855.1371,-190.2963 849.698,-184.4297"/>
<polyline fill="none" stroke="#000000" points="858.0704,-187.5767 859.4302,-189.0434 "/>
<text text-anchor="middle" x="906.4405" y="-374.8" font-family="Times,serif" font-size="14.00" fill="#000000">hostile</text>
</g>
<!-- purity -->
<g id="node31" class="node">
<title>purity</title>
<ellipse fill="none" stroke="#000000" cx="467.775" cy="-91" rx="75.7595" ry="18"/>
<text text-anchor="middle" x="467.775" y="-86.8" font-family="Times,serif" font-size="14.00" fill="#000000">Time Purity Patrol</text>
</g>
<!-- fleet&#45;&gt;purity -->
<g id="edge62" class="edge">
<title>fleet&#45;&gt;purity</title>
<path fill="none" stroke="#000000" stroke-dasharray="1,5" d="M993.9094,-571.4815C958.9542,-563.7254 915.9542,-549.9754 883.775,-526 851.9216,-502.2674 861.1504,-476.0681 825.775,-458 736.4341,-412.3688 693.6214,-477.9942 600.775,-440 577.7072,-430.5603 579.157,-416.808 557.775,-404 506.6811,-373.3943 477.2798,-394.3202 433.444,-354 411.1101,-333.4573 402.775,-323.3448 402.775,-293 402.775,-293 402.775,-293 402.775,-164 402.775,-143.7691 416.8719,-126.5493 431.9358,-113.9237"/>
<polygon fill="none" stroke="#000000" points="437.3678,-104.5976 442.2961,-110.8993 435.9944,-115.8277 431.066,-109.526 437.3678,-104.5976"/>
<polyline fill="none" stroke="#000000" points="433.5302,-112.6768 431.9548,-113.9089 "/>
<text text-anchor="middle" x="452.4405" y="-331.8" font-family="Times,serif" font-size="14.00" fill="#000000">hostile</text>
</g>
<!-- foundation -->
<g id="node9" class="node">
<title>foundation</title>
<ellipse fill="none" stroke="#000000" cx="180.775" cy="-164" rx="143.9525" ry="18"/>
<text text-anchor="middle" x="180.775" y="-159.8" font-family="Times,serif" font-size="14.00" fill="#000000">Foundation for a Time Encyclopaedia</text>
</g>
<!-- federation&#45;&gt;foundation -->
<g id="edge12" class="edge">
<title>federation&#45;&gt;foundation</title>
<path fill="none" stroke="#000000" d="M1616.8988,-239.8756C1598.4145,-236.913 1577.7721,-233.9499 1558.775,-232 1324.1328,-207.9157 634.9169,-180.6414 329.4493,-169.3406"/>
<polygon fill="#000000" stroke="#000000" points="329.3129,-165.8332 319.1905,-168.9617 329.0545,-172.8285 329.3129,-165.8332"/>
</g>
<!-- second_foundation -->
<g id="node10" class="node">
<title>second_foundation</title>
<ellipse fill="none" stroke="#000000" cx="1259.775" cy="-164" rx="97.1726" ry="18"/>
<text text-anchor="middle" x="1259.775" y="-159.8" font-family="Times,serif" font-size="14.00" fill="#000000">Covert Time Foundation</text>
</g>
<!-- federation&#45;&gt;second_foundation -->
<g id="edge15" class="edge">
<title>federation&#45;&gt;second_foundation</title>
<path fill="none" stroke="#000000" d="M1619.6518,-238.757C1546.747,-223.6125 1416.6796,-196.5937 1334.4924,-179.521"/>
<polygon fill="#000000" stroke="#000000" points="1334.9689,-176.0453 1324.4661,-177.4382 1333.5452,-182.899 1334.9689,-176.0453"/>
</g>
<!-- federation&#45;&gt;torture -->
<g id="edge66" class="edge">
<title>federation&#45;&gt;torture</title>
<path fill="none" stroke="#000000" stroke-dasharray="1,5" d="M1671.7543,-231.9039C1668.5418,-209.8441 1660.5819,-172.2643 1641.775,-146 1632.838,-133.5192 1620.1802,-122.7734 1607.7526,-114.1768"/>
<polygon fill="none" stroke="#000000" points="1597.0361,-111.9156 1601.4324,-105.2319 1608.1162,-109.6282 1603.7198,-116.312 1597.0361,-111.9156"/>
<polyline fill="none" stroke="#000000" points="1605.918,-112.9701 1607.5889,-114.0692 "/>
<text text-anchor="middle" x="1677.4405" y="-159.8" font-family="Times,serif" font-size="14.00" fill="#000000">hostile</text>
</g>
<!-- federation&#45;&gt;posthuman -->
<g id="edge69" class="edge">
<title>federation&#45;&gt;posthuman</title>
<path fill="none" stroke="#000000" stroke-dasharray="1,5" d="M1706.8247,-234.1156C1728.6242,-223.8722 1757.927,-210.5442 1784.3405,-200 1797.8274,-194.616 1812.4734,-189.2403 1826.3863,-184.3471"/>
<polygon fill="none" stroke="#000000" points="1834.5627,-177.2649 1837.1932,-184.8201 1829.638,-187.4506 1827.0075,-179.8954 1834.5627,-177.2649"/>
<polyline fill="none" stroke="#000000" points="1828.3228,-183.673 1826.434,-184.3306 "/>
<text text-anchor="middle" x="1817.9923" y="-202.8" font-family="Times,serif" font-size="14.00" fill="#000000">semi&#45;hostile</text>
</g>
<!-- federation&#45;&gt;people -->
<g id="edge68" class="edge">
<title>federation&#45;&gt;people</title>
<path fill="none" stroke="#000000" stroke-dasharray="1,5" d="M1730.7192,-239.8818C1816.9999,-224.5509 1981.1273,-195.3878 2078.8663,-178.021"/>
<polygon fill="none" stroke="#000000" points="2088.2874,-172.2843 2089.687,-180.1609 2081.8104,-181.5606 2080.4108,-173.6839 2088.2874,-172.2843"/>
<polyline fill="none" stroke="#000000" points="2081.1106,-177.6223 2079.1414,-177.9722 "/>
<text text-anchor="middle" x="1962.4405" y="-202.8" font-family="Times,serif" font-size="14.00" fill="#000000">hostile</text>
</g>
<!-- federation&#45;&gt;squads -->
<g id="edge67" class="edge">
<title>federation&#45;&gt;squads</title>
<path fill="none" stroke="#000000" stroke-dasharray="1,5" d="M1623.7919,-237.5374C1602.8476,-231.5517 1578.5182,-223.5806 1557.444,-214 1546.664,-209.0993 1544.9949,-205.9814 1534.775,-200 1526.9287,-195.4078 1518.4762,-190.6156 1510.346,-186.0816"/>
<polygon fill="none" stroke="#000000" points="1499.4139,-184.5951 1503.2924,-177.5982 1510.2894,-181.4768 1506.4108,-188.4737 1499.4139,-184.5951"/>
<polyline fill="none" stroke="#000000" points="1508.3501,-184.9752 1510.0993,-185.9449 "/>
<text text-anchor="middle" x="1575.4405" y="-202.8" font-family="Times,serif" font-size="14.00" fill="#000000">hostile</text>
</g>
<!-- federation&#45;&gt;purity -->
<g id="edge65" class="edge">
<title>federation&#45;&gt;purity</title>
<path fill="none" stroke="#000000" stroke-dasharray="1,5" d="M1653.2068,-232.7602C1637.9477,-219.546 1617.0075,-200.4956 1600.444,-182 1587.1601,-167.1666 1591.3274,-155.4024 1573.775,-146 1529.036,-122.0343 805.362,-100.178 553.4323,-93.262"/>
<polygon fill="none" stroke="#000000" points="543.1216,-96.9815 543.3404,-88.9845 551.3374,-89.2033 551.1186,-97.2003 543.1216,-96.9815"/>
<polyline fill="none" stroke="#000000" points="551.228,-93.2018 553.2273,-93.2564 "/>
<text text-anchor="middle" x="1618.4405" y="-159.8" font-family="Times,serif" font-size="14.00" fill="#000000">hostile</text>
</g>
<!-- babylon&#45;&gt;first_parlament -->
<g id="edge17" class="edge">
<title>babylon&#45;&gt;first_parlament</title>
<path fill="none" stroke="#000000" d="M2351.6494,-404.1807C2341.1762,-391.8425 2327.078,-375.2337 2315.4186,-361.4979"/>
<polygon fill="#000000" stroke="#000000" points="2318.021,-359.1552 2308.8813,-353.7964 2312.6843,-363.6852 2318.021,-359.1552"/>
</g>
<!-- babylon&#45;&gt;second_parlament -->
<g id="edge19" class="edge">
<title>babylon&#45;&gt;second_parlament</title>
<path fill="none" stroke="#000000" d="M2370.025,-403.991C2377.9086,-354.511 2393.0895,-214.3732 2330.775,-127 2327.0732,-121.8096 2322.369,-117.245 2317.2202,-113.2657"/>
<polygon fill="#000000" stroke="#000000" points="2319.0627,-110.2847 2308.8435,-107.4883 2315.0883,-116.0471 2319.0627,-110.2847"/>
</g>
<!-- foundation&#45;&gt;second_parlament -->
<g id="edge20" class="edge">
<title>foundation&#45;&gt;second_parlament</title>
<path fill="none" stroke="#000000" d="M319.458,-159.1537C711.4405,-145.4559 1821.3806,-106.6691 2166.2372,-94.6181"/>
<polygon fill="#000000" stroke="#000000" points="2166.5899,-98.108 2176.4615,-94.2608 2166.3454,-91.1123 2166.5899,-98.108"/>
</g>
<!-- foundation&#45;&gt;tabloid -->
<g id="edge42" class="edge">
<title>foundation&#45;&gt;tabloid</title>
<path fill="none" stroke="#000000" d="M206.2163,-146.1422C220.2916,-136.2624 237.9157,-123.8916 252.9023,-113.3722"/>
<polygon fill="#000000" stroke="#000000" points="255.2005,-116.0352 261.3746,-107.4253 251.1789,-110.3058 255.2005,-116.0352"/>
</g>
<!-- second_foundation&#45;&gt;second_parlament -->
<g id="edge21" class="edge">
<title>second_foundation&#45;&gt;second_parlament</title>
<path fill="none" stroke="#000000" d="M1328.3304,-151.2523C1340.7587,-149.257 1353.6287,-147.3967 1365.775,-146 1654.3274,-112.8196 1997.1504,-98.8865 2165.6763,-93.7001"/>
<polygon fill="#000000" stroke="#000000" points="2165.8952,-97.1951 2175.7843,-93.3931 2165.6826,-90.1984 2165.8952,-97.1951"/>
</g>
<!-- first_parlament&#45;&gt;federation -->
<g id="edge18" class="edge">
<title>first_parlament&#45;&gt;federation</title>
<path fill="none" stroke="#000000" d="M2234.0775,-328.0153C2140.7373,-315.4893 1954.5735,-290.3408 1796.775,-268 1779.5375,-265.5595 1760.9502,-262.8698 1743.5754,-260.3302"/>
<polygon fill="#000000" stroke="#000000" points="1743.9065,-256.8415 1733.5049,-258.8553 1742.8921,-263.7676 1743.9065,-256.8415"/>
</g>
<!-- first_parlament&#45;&gt;bureau -->
<g id="edge48" class="edge">
<title>first_parlament&#45;&gt;bureau</title>
<path fill="none" stroke="#000000" d="M2303.0236,-318.1091C2321.7437,-280.5951 2363.2399,-190.4298 2373.775,-109 2375.8279,-93.1322 2375.4902,-88.9078 2373.775,-73 2372.8216,-64.1576 2371.0297,-54.6519 2369.1159,-46.0718"/>
<polygon fill="#000000" stroke="#000000" points="2372.4814,-45.0948 2366.7692,-36.1718 2365.6702,-46.7094 2372.4814,-45.0948"/>
</g>
<!-- second_parlament&#45;&gt;bureau -->
<g id="edge49" class="edge">
<title>second_parlament&#45;&gt;bureau</title>
<path fill="none" stroke="#000000" d="M2292.0457,-73.3287C2303.824,-63.9829 2318.4605,-52.3691 2331.2784,-42.1984"/>
<polygon fill="#000000" stroke="#000000" points="2333.7326,-44.7191 2339.3906,-35.7615 2329.3815,-39.2356 2333.7326,-44.7191"/>
</g>
<!-- conservatory&#45;&gt;foundation -->
<g id="edge22" class="edge">
<title>conservatory&#45;&gt;foundation</title>
<path fill="none" stroke="#000000" d="M590.7289,-504.7295C430.007,-496.8761 73.775,-473.6442 73.775,-422 73.775,-422 73.775,-422 73.775,-250 73.775,-220.5795 98.6552,-199.5355 124.4207,-185.6305"/>
<polygon fill="#000000" stroke="#000000" points="126.1976,-188.6538 133.5318,-181.0079 123.0303,-182.4113 126.1976,-188.6538"/>
</g>
<!-- museum -->
<g id="node14" class="node">
<title>museum</title>
<ellipse fill="none" stroke="#000000" cx="671.775" cy="-422" rx="61.7524" ry="18"/>
<text text-anchor="middle" x="671.775" y="-417.8" font-family="Times,serif" font-size="14.00" fill="#000000">Time Museum</text>
</g>
<!-- conservatory&#45;&gt;museum -->
<g id="edge23" class="edge">
<title>conservatory&#45;&gt;museum</title>
<path fill="none" stroke="#000000" d="M668.6233,-489.7616C669.1536,-478.3597 669.8479,-463.4342 670.4497,-450.494"/>
<polygon fill="#000000" stroke="#000000" points="673.9595,-450.3639 670.9279,-440.2121 666.967,-450.0387 673.9595,-450.3639"/>
</g>
<!-- library -->
<g id="node15" class="node">
<title>library</title>
<ellipse fill="none" stroke="#000000" cx="458.775" cy="-422" rx="57.3834" ry="18"/>
<text text-anchor="middle" x="458.775" y="-417.8" font-family="Times,serif" font-size="14.00" fill="#000000">Time Library</text>
</g>
<!-- conservatory&#45;&gt;library -->
<g id="edge24" class="edge">
<title>conservatory&#45;&gt;library</title>
<path fill="none" stroke="#000000" d="M629.4412,-492.2263C593.8507,-477.5814 540.8655,-455.7788 503.3901,-440.3583"/>
<polygon fill="#000000" stroke="#000000" points="504.3181,-436.9555 493.7385,-436.3869 501.6544,-443.4289 504.3181,-436.9555"/>
</g>
<!-- conservatory&#45;&gt;travel -->
<g id="edge14" class="edge">
<title>conservatory&#45;&gt;travel</title>
<path fill="none" stroke="#000000" d="M686.1317,-490.4368C719.0552,-460.1566 791.6532,-398.8009 865.775,-372 947.624,-342.4051 974.6237,-366.3717 1060.775,-354 1068.0559,-352.9544 1075.6334,-351.717 1083.1759,-350.3881"/>
<polygon fill="#000000" stroke="#000000" points="1083.8293,-353.8268 1093.0433,-348.5968 1082.5789,-346.9394 1083.8293,-353.8268"/>
</g>
<!-- museum_acquisitions -->
<g id="node16" class="node">
<title>museum_acquisitions</title>
<ellipse fill="none" stroke="#000000" cx="677.775" cy="-336" rx="143.8574" ry="18"/>
<text text-anchor="middle" x="677.775" y="-331.8" font-family="Times,serif" font-size="14.00" fill="#000000">Department of Temporal Acquisitions</text>
</g>
<!-- museum&#45;&gt;museum_acquisitions -->
<g id="edge25" class="edge">
<title>museum&#45;&gt;museum_acquisitions</title>
<path fill="none" stroke="#000000" d="M673.0475,-403.7616C673.843,-392.3597 674.8843,-377.4342 675.7871,-364.494"/>
<polygon fill="#000000" stroke="#000000" points="679.2998,-364.4315 676.5044,-354.2121 672.3168,-363.9442 679.2998,-364.4315"/>
</g>
<!-- museum&#45;&gt;university -->
<g id="edge29" class="edge">
<title>museum&#45;&gt;university</title>
<path fill="none" stroke="#000000" d="M713.826,-408.806C747.5003,-398.3865 796.0099,-383.7036 838.775,-372 866.3939,-364.4415 897.1572,-356.7072 923.2167,-350.3545"/>
<polygon fill="#000000" stroke="#000000" points="924.0651,-353.7502 932.9576,-347.9906 922.4142,-346.9477 924.0651,-353.7502"/>
</g>
<!-- museum&#45;&gt;purity -->
<g id="edge71" class="edge">
<title>museum&#45;&gt;purity</title>
<path fill="none" stroke="#000000" stroke-dasharray="1,5" d="M631.4634,-408.2124C600.5822,-396.5397 557.8097,-377.8982 524.775,-354 494.7119,-332.2515 467.775,-330.1051 467.775,-293 467.775,-293 467.775,-293 467.775,-164 467.775,-149.2996 467.775,-132.934 467.775,-119.4302"/>
<polygon fill="none" stroke="#000000" points="463.775,-109.3004 471.775,-109.3003 471.7751,-117.3003 463.7751,-117.3004 463.775,-109.3004"/>
<polyline fill="none" stroke="#000000" points="467.7751,-117.3003 467.7751,-119.3003 "/>
<text text-anchor="middle" x="486.4405" y="-245.8" font-family="Times,serif" font-size="14.00" fill="#000000">hostile</text>
</g>
<!-- library&#45;&gt;foundation -->
<g id="edge27" class="edge">
<title>library&#45;&gt;foundation</title>
<path fill="none" stroke="#000000" d="M407.606,-413.9111C367.659,-405.2256 313.0303,-387.825 276.775,-354 227.9271,-308.4264 200.1984,-232.4801 188.1191,-191.7768"/>
<polygon fill="#000000" stroke="#000000" points="191.4347,-190.6416 185.3167,-181.9917 184.7053,-192.5689 191.4347,-190.6416"/>
</g>
<!-- library_special -->
<g id="node17" class="node">
<title>library_special</title>
<ellipse fill="none" stroke="#000000" cx="670.775" cy="-250" rx="138.606" ry="18"/>
<text text-anchor="middle" x="670.775" y="-245.8" font-family="Times,serif" font-size="14.00" fill="#000000">Library Special Operations Division</text>
</g>
<!-- library&#45;&gt;library_special -->
<g id="edge26" class="edge">
<title>library&#45;&gt;library_special</title>
<path fill="none" stroke="#000000" d="M466.3232,-403.9901C476.6084,-381.3235 496.9764,-342.4106 524.775,-318 548.5504,-297.1223 579.8335,-281.4153 607.3417,-270.3871"/>
<polygon fill="#000000" stroke="#000000" points="608.8387,-273.5605 616.8958,-266.6806 606.3068,-267.0344 608.8387,-273.5605"/>
</g>
<!-- library&#45;&gt;university -->
<g id="edge28" class="edge">
<title>library&#45;&gt;university</title>
<path fill="none" stroke="#000000" d="M509.5913,-413.6758C604.5715,-398.1171 809.0342,-364.6242 915.7716,-347.1396"/>
<polygon fill="#000000" stroke="#000000" points="916.4863,-350.5693 925.7889,-345.4987 915.3547,-343.6613 916.4863,-350.5693"/>
</g>
<!-- library&#45;&gt;purity -->
<g id="edge72" class="edge">
<title>library&#45;&gt;purity</title>
<path fill="none" stroke="#000000" stroke-dasharray="1,5" d="M406.4608,-414.693C374.1032,-409.1277 332.1375,-399.9937 296.775,-386 147.7932,-327.0448 -78.8359,-265.6053 27.775,-146 75.5539,-92.3975 277.5982,-118.4822 348.775,-109 363.4998,-107.0384 379.2237,-104.778 394.2563,-102.5362"/>
<polygon fill="none" stroke="#000000" points="403.9374,-97.0355 405.127,-104.9466 397.216,-106.1362 396.0263,-98.2252 403.9374,-97.0355"/>
<polyline fill="none" stroke="#000000" points="396.6211,-102.1807 394.6434,-102.4781 "/>
<text text-anchor="middle" x="54.4405" y="-245.8" font-family="Times,serif" font-size="14.00" fill="#000000">hostile</text>
</g>
<!-- museum_acquisitions&#45;&gt;library_special -->
<g id="edge70" class="edge">
<title>museum_acquisitions&#45;&gt;library_special</title>
<path fill="none" stroke="#000000" stroke-dasharray="1,5" d="M676.2905,-317.7616C675.3624,-306.3597 674.1476,-291.4342 673.0943,-278.494"/>
<polygon fill="none" stroke="#000000" points="668.2706,-268.5366 676.2442,-267.8876 676.8933,-275.8612 668.9197,-276.5103 668.2706,-268.5366"/>
<polyline fill="none" stroke="#000000" points="672.9065,-276.1857 673.0688,-278.1791 "/>
<text text-anchor="middle" x="708.9923" y="-288.8" font-family="Times,serif" font-size="14.00" fill="#000000">semi&#45;hostile</text>
</g>
<!-- museum_acquisitions&#45;&gt;smugglers -->
<g id="edge33" class="edge">
<title>museum_acquisitions&#45;&gt;smugglers</title>
<path fill="none" stroke="#000000" d="M742.2757,-319.861C770.1047,-309.5892 800.4221,-293.2976 818.775,-268 834.6603,-246.1038 836.8279,-214.6203 835.8468,-192.0374"/>
<polygon fill="#000000" stroke="#000000" points="839.3387,-191.798 835.1857,-182.0511 832.354,-192.2605 839.3387,-191.798"/>
</g>
<!-- library_special&#45;&gt;second_foundation -->
<g id="edge32" class="edge">
<title>library_special&#45;&gt;second_foundation</title>
<path fill="none" stroke="#000000" d="M763.13,-236.5152C875.5263,-220.1042 1063.8359,-192.6091 1173.438,-176.6061"/>
<polygon fill="#000000" stroke="#000000" points="1174.0787,-180.0497 1183.468,-175.1416 1173.0673,-173.1232 1174.0787,-180.0497"/>
</g>
<!-- library_special&#45;&gt;torture -->
<g id="edge38" class="edge">
<title>library_special&#45;&gt;torture</title>
<path fill="none" stroke="#000000" d="M674.9296,-231.9971C681.5597,-207.8064 697.0438,-165.5889 727.775,-146 783.0853,-110.7438 1174.7007,-97.8768 1402.4946,-93.3434"/>
<polygon fill="#000000" stroke="#000000" points="1402.6141,-96.8418 1412.5437,-93.1467 1402.477,-89.8432 1402.6141,-96.8418"/>
</g>
<!-- library_special&#45;&gt;private -->
<g id="edge39" class="edge">
<title>library_special&#45;&gt;private</title>
<path fill="none" stroke="#000000" d="M725.8212,-233.3972C760.8506,-223.1155 807.2739,-210.0109 848.775,-200 848.9507,-199.9576 907.3921,-188.139 957.2549,-178.0565"/>
<polygon fill="#000000" stroke="#000000" points="957.9854,-181.4797 967.0933,-176.0671 956.598,-174.6186 957.9854,-181.4797"/>
</g>
<!-- library_special&#45;&gt;smugglers -->
<g id="edge34" class="edge">
<title>library_special&#45;&gt;smugglers</title>
<path fill="none" stroke="#000000" d="M703.9491,-232.3891C729.3982,-218.879 764.6606,-200.1595 791.8601,-185.7202"/>
<polygon fill="#000000" stroke="#000000" points="793.5579,-188.7816 800.7494,-181.0013 790.2757,-182.5988 793.5579,-188.7816"/>
</g>
<!-- commune&#45;&gt;second_foundation -->
<g id="edge31" class="edge">
<title>commune&#45;&gt;second_foundation</title>
<path fill="none" stroke="#000000" d="M1458.0326,-232.9184C1442.1807,-222.1836 1420.5112,-208.758 1399.775,-200 1379.9167,-191.6128 1357.6231,-184.801 1336.7642,-179.4517"/>
<polygon fill="#000000" stroke="#000000" points="1337.5261,-176.0346 1326.9771,-177.0197 1335.8379,-182.828 1337.5261,-176.0346"/>
</g>
<!-- private&#45;&gt;torture -->
<g id="edge37" class="edge">
<title>private&#45;&gt;torture</title>
<path fill="none" stroke="#000000" d="M1094.6479,-154.2768C1113.7664,-151.5661 1134.5819,-148.6412 1153.775,-146 1255.1017,-132.0563 1370.5229,-116.6929 1453.3701,-105.7562"/>
<polygon fill="#000000" stroke="#000000" points="1453.8526,-109.223 1463.3088,-104.4448 1452.9368,-102.2832 1453.8526,-109.223"/>
</g>
<!-- hanse&#45;&gt;museum_acquisitions -->
<g id="edge46" class="edge">
<title>hanse&#45;&gt;museum_acquisitions</title>
<path fill="none" stroke="#000000" d="M1095.1921,-410.791C1053.3811,-399.8079 986.9561,-383.14 928.775,-372 883.9495,-363.4172 834.2649,-355.8818 791.0085,-349.9532"/>
<polygon fill="#000000" stroke="#000000" points="791.4026,-346.4746 781.0226,-348.5972 790.4607,-353.411 791.4026,-346.4746"/>
</g>
<!-- hanse&#45;&gt;travel -->
<g id="edge44" class="edge">
<title>hanse&#45;&gt;travel</title>
<path fill="none" stroke="#000000" d="M1140.1682,-403.7616C1142.3107,-392.2456 1145.1219,-377.1353 1147.5459,-364.1064"/>
<polygon fill="#000000" stroke="#000000" points="1150.9985,-364.6836 1149.3867,-354.2121 1144.1166,-363.4032 1150.9985,-364.6836"/>
</g>
<!-- hanse&#45;&gt;bureau -->
<g id="edge47" class="edge">
<title>hanse&#45;&gt;bureau</title>
<path fill="none" stroke="#000000" d="M1176.068,-409.843C1198.8365,-402.3616 1224.9023,-392.9149 1234.775,-386 1250.0167,-375.3247 1255.3868,-371.4775 1261.775,-354 1287.2202,-284.3848 1252.954,-249.4874 1197.775,-200 1182.0456,-185.8931 1165.5519,-199.5421 1153.775,-182 1144.8568,-168.716 1144.1839,-158.8067 1153.775,-146 1222.9057,-53.6924 1289.1371,-92.6512 1402.775,-73 1562.9175,-45.3068 2035.1019,-27.901 2251.3526,-21.1705"/>
<polygon fill="#000000" stroke="#000000" points="2251.5676,-24.6656 2261.4546,-20.8581 2251.3511,-17.669 2251.5676,-24.6656"/>
</g>
<!-- hanse&#45;&gt;smugglers -->
<g id="edge45" class="edge">
<title>hanse&#45;&gt;smugglers</title>
<path fill="none" stroke="#000000" d="M1171.2157,-408.1198C1211.7608,-389.6858 1270.5189,-355.1063 1244.775,-318 1204.886,-260.5055 1010.939,-206.4014 903.9692,-180.3023"/>
<polygon fill="#000000" stroke="#000000" points="904.7553,-176.8916 894.2125,-177.9406 903.1084,-183.6951 904.7553,-176.8916"/>
</g>
<!-- university&#45;&gt;commune -->
<g id="edge30" class="edge">
<title>university&#45;&gt;commune</title>
<path fill="none" stroke="#000000" d="M1032.8684,-323.4728C1042.0961,-321.4176 1051.6967,-319.4796 1060.775,-318 1145.3664,-304.2133 1168.0847,-313.1656 1252.775,-300 1311.2155,-290.9151 1377.1081,-276.0303 1423.1559,-264.8591"/>
<polygon fill="#000000" stroke="#000000" points="1424.0772,-268.2371 1432.9609,-262.4638 1422.4159,-261.437 1424.0772,-268.2371"/>
</g>
<!-- university&#45;&gt;posthuman -->
<g id="edge35" class="edge">
<title>university&#45;&gt;posthuman</title>
<path fill="none" stroke="#000000" d="M1029.0484,-322.3975C1122.1179,-294.9579 1342.0506,-232.8029 1530.775,-200 1542.13,-198.0264 1659.6936,-186.3007 1756.8564,-176.7596"/>
<polygon fill="#000000" stroke="#000000" points="1757.4794,-180.2153 1767.0897,-175.7553 1756.7956,-173.2488 1757.4794,-180.2153"/>
</g>
<!-- squads&#45;&gt;purity -->
<g id="edge10" class="edge">
<title>squads&#45;&gt;purity</title>
<path fill="none" stroke="#000000" d="M1402.5198,-151.2452C1390.3253,-149.2507 1377.6962,-147.3924 1365.775,-146 1068.6125,-111.2909 713.4054,-97.731 553.3756,-93.1032"/>
<polygon fill="#000000" stroke="#000000" points="553.2152,-89.5973 543.1196,-92.8111 553.0159,-96.5945 553.2152,-89.5973"/>
</g>
<!-- Space Fleet&#45;&gt;fleet -->
<g id="edge4" class="edge">
<title>Space Fleet&#45;&gt;fleet</title>
<path fill="none" stroke="#000000" d="M1055.775,-635.9551C1055.775,-627.8828 1055.775,-618.1764 1055.775,-609.1817"/>
<polygon fill="#000000" stroke="#000000" points="1059.2751,-609.0903 1055.775,-599.0904 1052.2751,-609.0904 1059.2751,-609.0903"/>
</g>
</g>
</svg>
